<svg xmlns="http://www.w3.org/2000/svg" width="197.7" height="209.6" viewBox="0 0 197.7 209.6">
  <style>
    .st0{fill:none;} .st1{fill:#AAC5E7;stroke:#000000;stroke-width:1.1128;stroke-miterlimit:10;} .st2{fill:#FBD7A7;} .st3{fill:#5D4838;} .st4{fill:#A79072;} .st5{fill:#2D4171;} .st6{fill:#D9EAF8;} .st7{fill:#4F70B6;} .st8{fill:#D9EAF8;stroke:#2D4171;stroke-width:0.5;stroke-miterlimit:10;} .st9{fill:none;stroke:#FBD7A7;stroke-width:1.088;stroke-linecap:round;stroke-miterlimit:10;} .st10{display:none;fill:none;stroke:#FBD7A7;stroke-width:2.7079;stroke-miterlimit:10;} .st11{fill:#FFFFFF;stroke:#2D4171;stroke-miterlimit:10;} .st12{fill:#FFFFFF;stroke:#2D4171;stroke-width:2.8741;stroke-miterlimit:10;} .st13{display:none;fill:#D9EAF8;stroke:#2D4171;stroke-width:3;stroke-miterlimit:10;} .st14{fill:#7698CF;} .st15{fill:#D9EAF8;stroke:#2D4171;stroke-width:3;stroke-miterlimit:10;} .st16{fill:#AAC5E7;} .st17{fill:none;stroke:#4F70B6;stroke-width:1.3493;stroke-miterlimit:10;} .st18{fill:#FFFFFF;} .st19{display:none;} .st20{display:inline;fill:none;} .st21{display:inline;fill:#2D4171;} .st22{fill:none;stroke:#FBD7A7;stroke-width:2.7079;stroke-linecap:round;stroke-miterlimit:10;} .st23{fill:none;stroke:#2D4171;stroke-width:2.7079;stroke-linecap:round;stroke-miterlimit:10;} .st24{fill:none;stroke:#4F70B6;stroke-width:1.088;stroke-miterlimit:10;} .st25{fill:#7698CF;stroke:#2D4171;stroke-width:3;stroke-miterlimit:10;} .st26{fill:#D9EAF8;stroke:#4F70B6;stroke-width:3;stroke-miterlimit:10;} .st27{fill:#4F70B6;stroke:#2D4171;stroke-width:3;stroke-miterlimit:10;} .st28{fill:#FBD7A7;stroke:#A79072;stroke-width:3;stroke-miterlimit:10;} .st29{fill:none;stroke:#7698CF;stroke-width:1.0494;stroke-miterlimit:10;} .st30{fill:none;stroke:#2D4171;stroke-width:1.0494;stroke-miterlimit:10;} .st31{fill:none;stroke:#D9EAF8;stroke-width:1.2626;stroke-miterlimit:10;} .st32{fill:none;stroke:#4F70B6;stroke-width:1.2626;stroke-miterlimit:10;} .st33{fill:none;stroke:#7698CF;stroke-width:1.2626;stroke-miterlimit:10;} .st34{fill:none;stroke:#2D4171;stroke-width:1.2626;stroke-miterlimit:10;} .st35{fill:none;stroke:#7698CF;stroke-width:1.3994;stroke-miterlimit:10;} .st36{fill:none;stroke:#4F70B6;stroke-width:1.0494;stroke-miterlimit:10;} .st37{fill:none;stroke:#D9EAF8;stroke-width:1.0494;stroke-miterlimit:10;} .st38{fill:#FFFFFF;stroke:#2D4171;stroke-width:3;stroke-miterlimit:10;} .st39{fill:none;stroke:#000000;stroke-width:0.3;} .st40{fill:#D9EAF8;stroke:#4F70B6;stroke-width:0.5;stroke-miterlimit:10;} .st41{fill:#4F70B6;stroke:#4F70B6;stroke-width:0.5;stroke-linecap:round;stroke-miterlimit:10;} .st42{fill:#4F70B6;stroke:#AAC5E7;stroke-width:0.5;stroke-miterlimit:10;} .st43{fill:#4F70B6;stroke:#4F70B6;stroke-width:0.5;stroke-miterlimit:10;}
  </style>
  <g id="Layer_30">
    <path class="st6" d="M30.3 165c.2-.8.5-1.6 1-2.1.5-.6 1.1-1.1 2-1.4s2-.5 3.3-.5c1.3 0 2.4.1 3.2.4.8.3 1.5.7 2 1.2s.8 1.1 1 1.7c.2.7.3 1.4.3 2.1 0 1.4-.2 2.5-.7 3.4-.5.9-1.1 1.8-1.8 2.5l-3.1 3c-.2.2-.5.5-.7.8-.3.3-.5.6-.6.9H43v4H29.9c0-1.4.2-2.7.6-4 .4-1.3 1.2-2.5 2.4-3.7l3.5-3.6c.5-.5.9-1 1.1-1.5.2-.5.3-1.1.3-1.8 0-.8-.1-1.4-.4-1.8-.2-.3-.6-.5-1-.5-.2 0-.4 0-.5.1s-.3.2-.5.4-.3.5-.3.8c-.1.3-.1.8-.1 1.4v.8h-5c0-.8.1-1.8.3-2.6zm14.7 1.2c.3-1.3.7-2.4 1.2-3.1.6-.8 1.3-1.3 2.1-1.6s1.9-.5 3-.5 2.2.2 3 .5 1.6.8 2.1 1.6c.6.8 1 1.8 1.2 3.1.3 1.3.4 3 .4 5s-.1 3.7-.4 5-.7 2.3-1.2 3.1c-.6.8-1.3 1.3-2.1 1.6s-1.9.4-3 .4-2.2-.1-3-.4-1.6-.8-2.1-1.6c-.6-.8-1-1.8-1.2-3.1s-.4-3-.4-5 .1-3.7.4-5zm5.2 11.2c.2.5.6.7 1.2.7s.9-.2 1.2-.7c.2-.5.4-1.5.4-2.9v-6.6c0-1.4-.1-2.4-.4-2.9-.2-.5-.6-.8-1.2-.8s-.9.3-1.2.8c-.2.5-.4 1.5-.4 2.9v6.6c0 1.4.1 2.4.4 2.9zm9.5-11.2c.3-1.3.7-2.4 1.2-3.1.6-.8 1.3-1.3 2.1-1.6s1.9-.5 3-.5 2.2.2 3 .5 1.6.8 2.1 1.6c.6.8 1 1.8 1.2 3.1.3 1.3.4 3 .4 5s-.1 3.7-.4 5-.7 2.3-1.2 3.1c-.6.8-1.3 1.3-2.1 1.6s-1.9.4-3 .4-2.2-.1-3-.4-1.6-.8-2.1-1.6c-.6-.8-1-1.8-1.2-3.1s-.4-3-.4-5 .1-3.7.4-5zm5.2 11.2c.2.5.6.7 1.2.7s.9-.2 1.2-.7c.2-.5.4-1.5.4-2.9v-6.6c0-1.4-.1-2.4-.4-2.9-.2-.5-.6-.8-1.2-.8s-.9.3-1.2.8c-.2.5-.4 1.5-.4 2.9v6.6c0 1.4.2 2.4.4 2.9zm25-11.2c0-.6-.1-1.1-.4-1.5-.2-.4-.6-.6-1.1-.6-.6 0-1 .2-1.2.6-.3.4-.4.8-.4 1.2 0 .7.2 1.2.6 1.6.4.4 1 .7 1.6 1 .6.3 1.3.6 2.1.9.7.3 1.4.7 2.1 1.1.6.5 1.2 1.1 1.6 1.9.4.8.6 1.8.6 3 0 2.1-.6 3.7-1.8 4.7-1.2 1-3 1.5-5.3 1.5-1.1 0-2.1-.1-2.9-.3-.8-.2-1.5-.5-2.1-.9-.6-.4-1-1-1.3-1.7-.3-.7-.5-1.6-.5-2.7v-1h5.1v.5c0 .9.2 1.5.5 1.8.3.3.7.5 1.2.5s1-.2 1.3-.6c.3-.4.4-.8.4-1.4 0-.7-.2-1.2-.6-1.6-.4-.4-.9-.7-1.5-1-.6-.3-1.3-.6-2-.8-.7-.3-1.4-.7-2-1.1-.6-.5-1.1-1-1.5-1.8-.4-.7-.6-1.7-.6-2.9 0-2.1.5-3.6 1.6-4.7s2.8-1.6 5-1.6c2.3 0 4 .5 5 1.5s1.5 2.6 1.5 4.7H90v-.3zm15-5.4c1 0 1.9.2 2.6.5.7.3 1.3.8 1.8 1.3.5.6.8 1.2 1.1 2 .2.8.3 1.6.3 2.5 0 2.1-.6 3.7-1.7 4.7s-2.8 1.6-4.9 1.6h-1.8v7.7H97v-20.2h7.9zm-1.6 8.7c.7 0 1.2-.2 1.5-.6s.5-1 .5-1.9c0-1.6-.7-2.5-2-2.5h-1v4.9h1zm21.1-8.7v4.3h-6.7v3.5h6.3v4.1h-6.3v4h7v4.3h-12.2v-20.2h11.9zm9.9 3.8c-.2-.4-.6-.6-1.1-.6-.4 0-.7.1-.9.3-.2.2-.4.6-.5 1.1-.1.5-.2 1.2-.2 2.1 0 .9-.1 2-.1 3.4s0 2.5.1 3.4c0 .9.1 1.6.2 2.1s.3.9.5 1.1c.2.2.6.3.9.3.3 0 .6-.1.8-.2.2-.2.4-.4.5-.8s.2-.9.2-1.5.1-1.4.1-2.4h5.1v1.5c0 1.4-.2 2.6-.6 3.5-.4.9-.9 1.6-1.5 2.1s-1.3.9-2.1 1c-.8.2-1.6.3-2.5.3-1.5 0-2.7-.2-3.6-.5-.9-.4-1.7-1-2.2-1.8-.5-.8-.9-1.9-1.1-3.3-.2-1.3-.3-2.9-.3-4.8s.1-3.6.4-4.9c.2-1.3.6-2.4 1.2-3.3.6-.8 1.3-1.4 2.2-1.8.9-.4 2.1-.6 3.4-.6 1.2 0 2.2.2 3 .5.8.3 1.5.7 2 1.3.5.6.9 1.2 1.1 2 .2.8.4 1.7.4 2.6v1.3h-5.1v-1c0-1.2-.1-2-.3-2.4zm12.5-3.8V181h-5.3v-20.2h5.3zm14.3 0v4.3h-6.7v3.5h6.3v4.1h-6.3v4h7v4.3h-12.2v-20.2h11.9zm10 5.4c0-.6-.1-1.1-.4-1.5-.2-.4-.6-.6-1.1-.6-.6 0-1 .2-1.2.6-.3.4-.4.8-.4 1.2 0 .7.2 1.2.6 1.6.4.4 1 .7 1.6 1 .6.3 1.3.6 2.1.9.7.3 1.4.7 2.1 1.1.6.5 1.2 1.1 1.6 1.9.4.8.6 1.8.6 3 0 2.1-.6 3.7-1.8 4.7-1.2 1-3 1.5-5.3 1.5-1.1 0-2.1-.1-2.9-.3-.8-.2-1.5-.5-2.1-.9-.6-.4-1-1-1.3-1.7-.3-.7-.5-1.6-.5-2.7v-1h5.1v.5c0 .9.2 1.5.5 1.8.3.3.7.5 1.2.5s1-.2 1.3-.6c.3-.4.4-.8.4-1.4 0-.7-.2-1.2-.6-1.6-.4-.4-.9-.7-1.5-1-.6-.3-1.3-.6-2-.8-.7-.3-1.4-.7-2-1.1-.6-.5-1.1-1-1.5-1.8-.4-.7-.6-1.7-.6-2.9 0-2.1.5-3.6 1.6-4.7s2.8-1.6 5-1.6c2.3 0 4 .5 5 1.5s1.5 2.6 1.5 4.7h-4.9v-.3z"/>
    <path class="st5" d="M12.4 189v1.1c.1-.2.2-.4.3-.5.1-.2.3-.3.5-.4l.6-.3c.2-.1.4-.1.6-.1.1 0 .2 0 .4.1v1.6h-.6c-.3 0-.6.1-.8.2-.2.1-.4.2-.5.4l-.3.6s-.1.5-.1.8v2.8h-1.7V189h1.6zm4.7 4.7c.3.2.6.4 1.1.4.3 0 .6-.1.9-.3l.5-.5H21c-.2.7-.6 1.3-1.1 1.6-.5.3-1.1.5-1.8.5-.5 0-.9-.1-1.3-.2-.4-.2-.7-.4-1-.7-.3-.3-.5-.6-.6-1-.1-.4-.2-.8-.2-1.3s.1-.9.2-1.3c.2-.4.4-.7.6-1 .3-.3.6-.5 1-.7.4-.2.8-.3 1.3-.3s1 .1 1.4.3c.4.2.7.5 1 .8.3.3.4.7.5 1.2.1.4.2.9.1 1.4h-4.5c.1.4.2.8.5 1.1zm1.9-3.3c-.2-.2-.5-.3-.9-.3-.3 0-.5 0-.7.1s-.3.2-.4.3-.2.3-.2.4-.1.3-.1.4h2.8c-.2-.3-.3-.7-.5-.9zm4.5 3.2l.3.3c.1.1.3.1.4.2.2 0 .3.1.5.1h.4c.1 0 .3-.1.4-.1.1-.1.2-.1.3-.2.1-.1.1-.2.1-.4 0-.3-.2-.4-.5-.6-.3-.1-.8-.3-1.4-.4-.2-.1-.5-.1-.7-.2l-.6-.3c-.2-.1-.3-.3-.4-.5s-.2-.4-.2-.7c0-.4.1-.7.2-1 .2-.3.4-.5.6-.6.3-.1.5-.3.9-.3s.6-.1 1-.1.7 0 1 .1c.3.1.6.2.8.3.2.2.5.4.6.6.2.3.3.6.3 1h-1.6c0-.3-.1-.5-.4-.7-.2-.1-.5-.2-.8-.2h-.3c-.1 0-.2 0-.3.1s-.2.1-.2.2c-.1.1-.1.2-.1.3 0 .2.1.3.2.4.1.1.3.2.4.2.2.1.4.1.6.2s.5.1.7.2c.2.1.5.1.7.2l.6.3c.2.1.3.3.4.5s.2.4.2.7c0 .4-.1.7-.2 1-.2.3-.4.5-.6.7-.3.2-.6.3-.9.4-.3.1-.7.1-1 .1-.4 0-.7 0-1.1-.1-.3-.1-.6-.2-.9-.4-.3-.2-.5-.4-.7-.7-.2-.3-.3-.6-.3-1h1.6c-.1.1 0 .3 0 .4zm5.1-5.6v-1.4h1.7v1.4h-1.7zm1.7 1v6.2h-1.7V189h1.7zm5.7 5.4c-.2.3-.5.6-.8.7s-.7.2-1.1.2c-.5 0-.9-.1-1.2-.3-.4-.2-.6-.4-.9-.7-.2-.3-.4-.7-.5-1.1-.1-.4-.2-.8-.2-1.2 0-.4.1-.8.2-1.2.1-.4.3-.7.5-1 .2-.3.5-.5.9-.7s.7-.3 1.2-.3c.4 0 .7.1 1 .2.3.2.6.4.8.7v-3.1h1.7v8.5H36v-.7zm0-3.1c0-.2-.1-.4-.2-.6-.1-.2-.3-.3-.4-.4-.2-.1-.4-.2-.7-.2s-.5.1-.7.2c-.2.1-.3.3-.5.4l-.3.6s-.1.5-.1.7c0 .2 0 .5.1.7s.1.5.3.6c.1.2.3.3.5.5.2.1.4.2.7.2.3 0 .5-.1.7-.2.2-.1.3-.3.4-.4.1-.2.2-.4.2-.6s.1-.5.1-.7c-.1-.3-.1-.5-.1-.8zm4.8 2.4c.3.2.6.4 1.1.4.3 0 .6-.1.9-.3l.5-.5h1.5c-.2.7-.6 1.3-1.1 1.6-.5.3-1.1.5-1.8.5-.5 0-.9-.1-1.3-.2-.4-.2-.7-.4-1-.7-.3-.3-.5-.6-.6-1-.1-.4-.2-.8-.2-1.3s.1-.9.2-1.3c.2-.4.4-.7.6-1 .3-.3.6-.5 1-.7.4-.2.8-.3 1.3-.3s1 .1 1.4.3c.4.2.7.5 1 .8.3.3.4.7.5 1.2.1.4.2.9.1 1.4h-4.5c0 .4.1.8.4 1.1zm1.9-3.3c-.2-.2-.5-.3-.9-.3-.3 0-.5 0-.7.1s-.3.2-.4.3-.2.3-.2.4-.1.3-.1.4h2.8c-.2-.3-.3-.7-.5-.9zm6.5-2.4v-1.4h1.7v1.4h-1.7zm1.7 1v6.2h-1.7V189h1.7zm2.9 0v.9c.2-.4.5-.6.8-.8.3-.2.7-.2 1.1-.2.5 0 .8.1 1.1.2.3.1.5.3.7.5.2.2.3.5.4.8.1.3.1.7.1 1v3.8h-1.7v-3.5c0-.5-.1-.9-.2-1.1-.2-.3-.4-.4-.8-.4-.5 0-.8.1-1 .4-.2.3-.3.7-.3 1.4v3.2h-1.7V189h1.5zm14.5-.1c-.1-.2-.3-.3-.4-.5l-.6-.3c-.2-.1-.4-.1-.7-.1-.4 0-.8.1-1.1.2-.3.2-.5.4-.7.7s-.3.6-.4.9c-.1.4-.1.7-.1 1.1 0 .4 0 .7.1 1 .1.3.2.6.4.9.2.3.4.5.7.7.3.2.7.2 1.1.2.6 0 1-.2 1.3-.5.3-.4.5-.8.6-1.4h1.8c0 .5-.2 1-.4 1.4-.2.4-.5.8-.8 1.1-.3.3-.7.5-1.1.7-.4.2-.9.2-1.4.2-.7 0-1.2-.1-1.8-.3-.5-.2-1-.5-1.3-.9-.4-.4-.6-.9-.8-1.4-.2-.5-.3-1.1-.3-1.7 0-.6.1-1.2.3-1.8.2-.5.5-1 .8-1.4.4-.4.8-.7 1.3-1 .5-.2 1.1-.3 1.8-.3.5 0 .9.1 1.3.2s.8.3 1.1.6c.3.3.6.6.8 1 .2.4.4.8.4 1.3h-1.8c.1-.2 0-.4-.1-.6zm3.1 2c0-.4.1-.7.3-1 .2-.3.4-.5.7-.6.3-.2.6-.3.9-.3.3-.1.7-.1 1-.1.3 0 .6 0 .9.1.3 0 .6.1.9.3.3.1.5.3.6.5.2.2.3.5.3.9v4c0 .3.1.4.2.6h-1.7c0-.1-.1-.2-.1-.3v-.3c-.3.3-.6.5-1 .6-.4.1-.7.2-1.1.2-.3 0-.6 0-.8-.1-.3-.1-.5-.2-.7-.3s-.3-.3-.4-.6c-.1-.2-.2-.5-.2-.8 0-.4.1-.6.2-.9s.3-.4.5-.5.4-.2.7-.3c.3-.1.5-.1.8-.2.3 0 .5-.1.8-.1.2 0 .5-.1.7-.1s.3-.1.5-.2c.1-.1.2-.2.2-.4s0-.3-.1-.4-.1-.2-.2-.3c-.1-.1-.2-.1-.3-.1h-.4c-.3 0-.6.1-.8.2s-.3.4-.3.7h-2.1zm4 1.2c-.1.1-.2.1-.3.1-.1 0-.2.1-.3.1-.1 0-.3 0-.4.1-.1 0-.3 0-.4.1-.1 0-.3.1-.4.1-.1 0-.2.1-.3.2-.1.1-.2.2-.2.3s-.1.2-.1.4 0 .3.1.4c.1.1.1.2.2.2.1.1.2.1.3.1h.4c.3 0 .6-.1.8-.2.2-.1.3-.2.4-.4s.1-.3.2-.5v-1zM80 189v.9c.2-.4.5-.6.8-.8.3-.2.7-.2 1.1-.2.5 0 .8.1 1.1.2.3.1.5.3.7.5.2.2.3.5.4.8.1.3.1.7.1 1v3.8h-1.7v-3.5c0-.5-.1-.9-.2-1.1-.2-.3-.4-.4-.8-.4-.5 0-.8.1-1 .4-.2.3-.3.7-.3 1.4v3.2h-1.7V189H80zm5.4 1.9c0-.4.1-.7.3-1 .2-.3.4-.5.7-.6.3-.2.6-.3.9-.3.3-.1.7-.1 1-.1.3 0 .6 0 .9.1.3 0 .6.1.9.3.3.1.5.3.6.5.2.2.3.5.3.9v4c0 .3.1.4.2.6h-1.7c0-.1-.1-.2-.1-.3v-.3c-.3.3-.6.5-1 .6-.4.1-.7.2-1.1.2-.3 0-.6 0-.8-.1-.3-.1-.5-.2-.7-.3s-.3-.3-.4-.6c-.1-.2-.2-.5-.2-.8 0-.4.1-.6.2-.9s.3-.4.5-.5.4-.2.7-.3c.3-.1.5-.1.8-.2.3 0 .5-.1.8-.1.2 0 .5-.1.7-.1s.3-.1.5-.2c.1-.1.2-.2.2-.4s0-.3-.1-.4-.1-.2-.2-.3c-.1-.1-.2-.1-.3-.1h-.4c-.3 0-.6.1-.8.2s-.3.4-.3.7h-2.1zm3.9 1.2c-.1.1-.2.1-.3.1-.1 0-.2.1-.3.1-.1 0-.3 0-.4.1-.1 0-.3 0-.4.1-.1 0-.3.1-.4.1-.1 0-.2.1-.3.2-.1.1-.2.2-.2.3s-.1.2-.1.4 0 .3.1.4c.1.1.1.2.2.2.1.1.2.1.3.1h.4c.3 0 .6-.1.8-.2.2-.1.3-.2.4-.4s.1-.3.2-.5v-1zm7.4 2.3c-.2.3-.5.6-.8.7s-.7.2-1.1.2c-.5 0-.9-.1-1.2-.3-.4-.2-.6-.4-.9-.7-.2-.3-.4-.7-.5-1.1-.1-.4-.2-.8-.2-1.2 0-.4.1-.8.2-1.2.1-.4.3-.7.5-1 .2-.3.5-.5.9-.7s.7-.3 1.2-.3c.4 0 .7.1 1 .2.3.2.6.4.8.7v-3.1h1.7v8.5h-1.6v-.7zm0-3.1c0-.2-.1-.4-.2-.6-.1-.2-.3-.3-.4-.4-.2-.1-.4-.2-.7-.2s-.5.1-.7.2c-.2.1-.3.3-.5.4l-.3.6s-.1.5-.1.7c0 .2 0 .5.1.7s.1.5.3.6c.1.2.3.3.5.5.2.1.4.2.7.2.3 0 .5-.1.7-.2.2-.1.3-.3.4-.4.1-.2.2-.4.2-.6s.1-.5.1-.7c-.1-.3-.1-.5-.1-.8zm2.9-.4c0-.4.1-.7.3-1 .2-.3.4-.5.7-.6.3-.2.6-.3.9-.3.3-.1.7-.1 1-.1.3 0 .6 0 .9.1.3 0 .6.1.9.3.3.1.5.3.6.5.2.2.3.5.3.9v4c0 .3.1.4.2.6h-1.7c0-.1-.1-.2-.1-.3v-.3c-.3.3-.6.5-1 .6-.4.1-.7.2-1.1.2-.3 0-.6 0-.8-.1-.3-.1-.5-.2-.7-.3s-.3-.3-.4-.6c-.1-.2-.2-.5-.2-.8 0-.4.1-.6.2-.9s.3-.4.5-.5.4-.2.7-.3c.3-.1.5-.1.8-.2.3 0 .5-.1.8-.1.2 0 .5-.1.7-.1s.3-.1.5-.2c.1-.1.2-.2.2-.4s0-.3-.1-.4-.1-.2-.2-.3c-.1-.1-.2-.1-.3-.1h-.4c-.3 0-.6.1-.8.2s-.3.4-.3.7h-2.1zm3.9 1.2c-.1.1-.2.1-.3.1-.1 0-.2.1-.3.1-.1 0-.3 0-.4.1-.1 0-.3 0-.4.1-.1 0-.3.1-.4.1-.1 0-.2.1-.3.2-.1.1-.2.2-.2.3s-.1.2-.1.4 0 .3.1.4c.1.1.1.2.2.2.1.1.2.1.3.1h.4c.3 0 .6-.1.8-.2.2-.1.3-.2.4-.4s.1-.3.2-.5v-1zm4.9-5.5v1.8c0 .3 0 .5-.1.7-.1.2-.2.4-.4.6-.2.2-.3.3-.5.4-.2.1-.4.2-.7.2v-.8c.3-.1.5-.3.6-.5.1-.2.2-.5.2-.7h-.8v-1.8h1.7zm2 7l.3.3c.1.1.3.1.4.2.2 0 .3.1.5.1h.4c.1 0 .3-.1.4-.1.1-.1.2-.1.3-.2.1-.1.1-.2.1-.4 0-.3-.2-.4-.5-.6-.3-.1-.8-.3-1.4-.4-.2-.1-.5-.1-.7-.2l-.6-.3c-.2-.1-.3-.3-.4-.5s-.2-.4-.2-.7c0-.4.1-.7.2-1 .2-.3.4-.5.6-.6.3-.1.5-.3.9-.3s.6-.1 1-.1.7 0 1 .1c.3.1.6.2.8.3.2.2.5.4.6.6.2.3.3.6.3 1h-1.6c0-.3-.1-.5-.4-.7-.2-.1-.5-.2-.8-.2h-.3c-.1 0-.2 0-.3.1s-.2.1-.2.2c-.1.1-.1.2-.1.3 0 .2.1.3.2.4.1.1.3.2.4.2.2.1.4.1.6.2s.5.1.7.2c.2.1.5.1.7.2l.6.3c.2.1.3.3.4.5s.2.4.2.7c0 .4-.1.7-.2 1-.2.3-.4.5-.6.7-.3.2-.6.3-.9.4-.3.1-.7.1-1 .1-.4 0-.7 0-1.1-.1-.3-.1-.6-.2-.9-.4-.3-.2-.5-.4-.7-.7-.2-.3-.3-.6-.3-1h1.6c-.1.1-.1.3 0 .4zm7.7-3.5V189h1v-.5c0-.6.2-1 .5-1.4.3-.4.9-.5 1.6-.5h.9v1.3h-.6c-.2 0-.4.1-.5.2-.1.1-.1.3-.1.5v.4h1.2v1.1h-1.2v5.1h-1.7v-5.1h-1.1zm6.2-1.1v1.1c.1-.2.2-.4.3-.5.1-.2.3-.3.5-.4l.6-.3c.2-.1.4-.1.6-.1.1 0 .2 0 .4.1v1.6h-.6c-.3 0-.6.1-.8.2-.2.1-.4.2-.5.4l-.3.6s-.1.5-.1.8v2.8h-1.7V189h1.6zm4.7 4.7c.3.2.6.4 1.1.4.3 0 .6-.1.9-.3l.5-.5h1.5c-.2.7-.6 1.3-1.1 1.6-.5.3-1.1.5-1.8.5-.5 0-.9-.1-1.3-.2-.4-.2-.7-.4-1-.7-.3-.3-.5-.6-.6-1-.1-.4-.2-.8-.2-1.3s.1-.9.2-1.3c.2-.4.4-.7.6-1 .3-.3.6-.5 1-.7.4-.2.8-.3 1.3-.3s1 .1 1.4.3c.4.2.7.5 1 .8.3.3.4.7.5 1.2.1.4.2.9.1 1.4h-4.5c0 .4.1.8.4 1.1zm1.9-3.3c-.2-.2-.5-.3-.9-.3-.3 0-.5 0-.7.1s-.3.2-.4.3-.2.3-.2.4-.1.3-.1.4h2.8c-.2-.3-.3-.7-.5-.9zm4.6 3.2l.3.3c.1.1.3.1.4.2.2 0 .3.1.5.1h.4c.1 0 .3-.1.4-.1.1-.1.2-.1.3-.2.1-.1.1-.2.1-.4 0-.3-.2-.4-.5-.6-.3-.1-.8-.3-1.4-.4-.2-.1-.5-.1-.7-.2l-.6-.3c-.2-.1-.3-.3-.4-.5s-.2-.4-.2-.7c0-.4.1-.7.2-1 .2-.3.4-.5.6-.6.3-.1.5-.3.9-.3s.6-.1 1-.1.7 0 1 .1c.3.1.6.2.8.3.2.2.5.4.6.6.2.3.3.6.3 1h-1.6c0-.3-.1-.5-.4-.7-.2-.1-.5-.2-.8-.2h-.3c-.1 0-.2 0-.3.1s-.2.1-.2.2c-.1.1-.1.2-.1.3 0 .2.1.3.2.4.1.1.3.2.4.2.2.1.4.1.6.2s.5.1.7.2c.2.1.5.1.7.2l.6.3c.2.1.3.3.4.5s.2.4.2.7c0 .4-.1.7-.2 1-.2.3-.4.5-.6.7-.3.2-.6.3-.9.4-.3.1-.7.1-1 .1-.4 0-.7 0-1.1-.1-.3-.1-.6-.2-.9-.4-.3-.2-.5-.4-.7-.7-.2-.3-.3-.6-.3-1h1.6c-.2.1-.1.3 0 .4zm6.7-7v3.2c.2-.4.5-.6.8-.8.3-.2.7-.2 1-.2.5 0 .8.1 1.1.2.3.1.5.3.7.5.2.2.3.5.4.8.1.3.1.7.1 1v3.8h-1.7v-3.5c0-.5-.1-.9-.2-1.1-.2-.3-.4-.4-.8-.4-.5 0-.8.1-1 .4-.2.3-.3.7-.3 1.4v3.2h-1.7v-8.5h1.6zm14 8.6l-1.1-4.2-1.1 4.2h-1.8l-2-6.2h1.8l1.1 4.2 1-4.2h1.7l1.1 4.2 1.1-4.2h1.7l-2 6.2h-1.5zm4.3-4.3c0-.4.1-.7.3-1 .2-.3.4-.5.7-.6.3-.2.6-.3.9-.3.3-.1.7-.1 1-.1.3 0 .6 0 .9.1.3 0 .6.1.9.3.3.1.5.3.6.5.2.2.3.5.3.9v4c0 .3.1.4.2.6h-1.7c0-.1-.1-.2-.1-.3v-.3c-.3.3-.6.5-1 .6-.4.1-.7.2-1.1.2-.3 0-.6 0-.8-.1-.3-.1-.5-.2-.7-.3s-.3-.3-.4-.6c-.1-.2-.2-.5-.2-.8 0-.4.1-.6.2-.9s.3-.4.5-.5.4-.2.7-.3c.3-.1.5-.1.8-.2.3 0 .5-.1.8-.1.2 0 .5-.1.7-.1s.3-.1.5-.2c.1-.1.2-.2.2-.4s0-.3-.1-.4-.1-.2-.2-.3c-.1-.1-.2-.1-.3-.1h-.4c-.3 0-.6.1-.8.2s-.3.4-.3.7h-2.1zm4 1.2c-.1.1-.2.1-.3.1-.1 0-.2.1-.3.1-.1 0-.3 0-.4.1-.1 0-.3 0-.4.1-.1 0-.3.1-.4.1-.1 0-.2.1-.3.2-.1.1-.2.2-.2.3s-.1.2-.1.4 0 .3.1.4c.1.1.1.2.2.2.1.1.2.1.3.1h.4c.3 0 .6-.1.8-.2.2-.1.3-.2.4-.4s.1-.3.2-.5v-1zm6.4-3.1v1.1h-1.2v3.1c0 .3 0 .5.1.6s.3.1.6.1h.6v1.3h-1c-.3 0-.5 0-.7-.1s-.4-.1-.6-.2c-.2-.1-.3-.3-.4-.4s-.2-.4-.2-.8V190h-1v-1h1v-1.9h1.7v1.9h1.1zm2.6 4.7c.3.2.6.4 1.1.4.3 0 .6-.1.9-.3l.5-.5h1.5c-.2.7-.6 1.3-1.1 1.6-.5.3-1.1.5-1.8.5-.5 0-.9-.1-1.3-.2-.4-.2-.7-.4-1-.7-.3-.3-.5-.6-.6-1-.1-.4-.2-.8-.2-1.3s.1-.9.2-1.3c.2-.4.4-.7.6-1 .3-.3.6-.5 1-.7.4-.2.8-.3 1.3-.3s1 .1 1.4.3c.4.2.7.5 1 .8.3.3.4.7.5 1.2.1.4.2.9.1 1.4h-4.5c0 .4.2.8.4 1.1zm1.9-3.3c-.2-.2-.5-.3-.9-.3-.3 0-.5 0-.7.1s-.3.2-.4.3-.2.3-.2.4-.1.3-.1.4h2.8c-.1-.3-.3-.7-.5-.9zm4.8-1.4v1.1c.1-.2.2-.4.3-.5.1-.2.3-.3.5-.4l.6-.3c.2-.1.4-.1.6-.1.1 0 .2 0 .4.1v1.6h-.6c-.3 0-.6.1-.8.2-.2.1-.4.2-.5.4l-.3.6s-.1.5-.1.8v2.8h-1.7V189h1.6zm4.5 4.6l.3.3c.1.1.3.1.4.2.2 0 .3.1.5.1h.4c.1 0 .3-.1.4-.1.1-.1.2-.1.3-.2.1-.1.1-.2.1-.4 0-.3-.2-.4-.5-.6-.3-.1-.8-.3-1.4-.4-.2-.1-.5-.1-.7-.2l-.6-.3c-.2-.1-.3-.3-.4-.5s-.2-.4-.2-.7c0-.4.1-.7.2-1 .2-.3.4-.5.6-.6.3-.1.5-.3.9-.3s.6-.1 1-.1.7 0 1 .1c.3.1.6.2.8.3.2.2.5.4.6.6.2.3.3.6.3 1h-1.6c0-.3-.1-.5-.4-.7-.2-.1-.5-.2-.8-.2h-.3c-.1 0-.2 0-.3.1s-.2.1-.2.2c-.1.1-.1.2-.1.3 0 .2.1.3.2.4.1.1.3.2.4.2.2.1.4.1.6.2s.5.1.7.2c.2.1.5.1.7.2l.6.3c.2.1.3.3.4.5s.2.4.2.7c0 .4-.1.7-.2 1-.2.3-.4.5-.6.7-.3.2-.6.3-.9.4-.3.1-.7.1-1 .1-.4 0-.7 0-1.1-.1-.3-.1-.6-.2-.9-.4-.3-.2-.5-.4-.7-.7-.2-.3-.3-.6-.3-1h1.6c-.2.1-.1.3 0 .4z"/>
    <path class="st7" d="M88.2 13.3c3-1.8 18.5 8.4 18.9 19.2s11.6-2.5 15.3 2.5-9.8 29.2-5.5 31.9c4.3 2.8 6.4-17.7 11.4-13.3s10.3 9 18.3 7.4c8-1.6-4 9 0 16 4 6.9 13-2.7 12.7 7.1S124.7 101 129 110c4.2 9 14.8 8.7 8.3 12.4-6.5 3.7-32.6-6.2-33.5.9-.9 7.1 9.9 22.8-1.4 27.8s-21-3.7-14.1-13.9 9.4-14.1-2.3-12.4c-11.6 1.7-20.7 8-22.7 2.5-2-5.6 15.4-16.1 8.9-18.3-6.6-2-46.3-17.4-37.6-24s12.4-1 14.6-5c2.2-4-12.8-12-6.5-15.6 6.3-3.6 13.9 6 19.5 2.3s-6.2-11.2.9-11.2 15.4 17.4 17.3 14S60.2 28 69.2 30.9s21.8 10 19.1 2.3c-2.8-7.8-5.1-16.8-.1-19.9z"/>
    <path class="st5" d="M118.5 96.5l6.8 1.6s-8.7-16.7 0-18.6c8.7-1.9 3.5 14.2-6.8 17zm-34.1-8.4l2.4 2.6s-.4-9.2 5.3-7.7c5.7 1.6-3.6 8-7.7 5.1zM95.9 63l-1-4s-6.6 9.1-9.9 5 6.7-5.7 10.9-1zm13.9-.6l1.6-4.1s-9.9 5.6-11.4-1.6 10.8-.6 9.8 5.7zm-8.5-24.1l-6.1-3.4s3.6 18.5-5.3 17.8.8-14.7 11.4-14.4zm-6 77.4l-2.1-4.3s-3 12.1-9.8 7.9 7.6-9 11.9-3.6zm40.5-35.4l-.2 4.1s8.9-6.8 10.9-2c2 5-8 3.6-10.7-2.1zm-40.4 54.1l-1.9 2.4s7.8-1.8 7.3 3.3-7.2-1.7-5.4-5.7zm10.6-25.5l-.9 4.6s9.2-7.7 12.1-.6c3 7.2-10.9 2.6-11.2-4zm.7-23.5l5.1 1.2s-6.5-12.5 0-13.9c6.4-1.4 2.5 10.6-5.1 12.7zm-40.1-3.1l3.7 4.1s-.7-14.3 8.2-11.9-5.5 12.4-11.9 7.8zm36.3-.2l1.2-3.1s-7.4 4.2-8.5-1.2c-1.1-5.3 8-.4 7.3 4.3zM88.4 98.7l-1.5-3.2s-2.2 9-7.3 5.9c-5.1-3.2 5.7-6.7 8.8-2.7zm35.9-35.4l-.1 3.1s6.6-5.1 8.1-1.5c1.4 3.7-6 2.6-8-1.6zM95 99.7l-1.4 1.8s5.8-1.3 5.5 2.5c-.4 3.8-5.5-1.3-4.1-4.3zm12.9 1.6l3.3-1s-8.3-3.4-4.6-7.8c3.8-4.4 5.6 6.4 1.3 8.8zM44.7 90l2.4 2.6s-.4-9.2 5.3-7.7c5.7 1.6-3.6 8-7.7 5.1zM61 81.8l1.2-3.1s-7.4 4.2-8.5-1.2c-1.1-5.3 8-.3 7.3 4.3zm5 19.3l3.3-1s-8.3-3.4-4.6-7.8c3.8-4.5 5.6 6.3 1.3 8.8z"/>
    <path class="st7" d="M129.3 49.6c0 3.1 1.1 2.5 3.5 3 2.3.4 3.6-6.7.6-6.6-2.9.1-4.1.5-4.1 3.6zm-69.5 79.1c2.8 1.8 2.8 3.4 1.4 4.3-1.4.9-6.5-1.1-6.8-3.2-.3-2 3.2 1.6 3.9 1.1.7-.4-.1-3.3 1.5-2.2z"/>
  </g>
</svg>
