<svg xmlns="http://www.w3.org/2000/svg" width="335.8" height="371.1" viewBox="0 0 335.8 371.1">
  <style>
    .st0{fill:none;} .st1{fill:#AAC5E7;stroke:#000000;stroke-width:1.1128;stroke-miterlimit:10;} .st2{fill:#FBD7A7;} .st3{fill:#5D4838;} .st4{fill:#A79072;} .st5{fill:#2D4171;} .st6{fill:#D9EAF8;} .st7{fill:#4F70B6;} .st8{fill:#D9EAF8;stroke:#2D4171;stroke-width:0.5;stroke-miterlimit:10;} .st9{fill:none;stroke:#FBD7A7;stroke-width:1.088;stroke-linecap:round;stroke-miterlimit:10;} .st10{fill:none;stroke:#FBD7A7;stroke-width:2.7079;stroke-miterlimit:10;} .st11{fill:#FFFFFF;stroke:#2D4171;stroke-miterlimit:10;} .st12{fill:#FFFFFF;stroke:#2D4171;stroke-width:2.8741;stroke-miterlimit:10;} .st13{fill:#D9EAF8;stroke:#2D4171;stroke-width:3;stroke-miterlimit:10;} .st14{fill:#7698CF;} .st15{fill:#AAC5E7;} .st16{fill:none;stroke:#4F70B6;stroke-width:1.3493;stroke-miterlimit:10;} .st17{fill:#FFFFFF;} .st18{fill:#D9EAF8;stroke:#4F70B6;stroke-width:0.5;stroke-miterlimit:10;} .st19{fill:#4F70B6;stroke:#4F70B6;stroke-width:0.5;stroke-linecap:round;stroke-miterlimit:10;} .st20{fill:#4F70B6;stroke:#AAC5E7;stroke-width:0.5;stroke-miterlimit:10;} .st21{fill:#4F70B6;stroke:#4F70B6;stroke-width:0.5;stroke-miterlimit:10;} .st22{fill:none;stroke:#FBD7A7;stroke-width:2.7079;stroke-linecap:round;stroke-miterlimit:10;} .st23{fill:none;stroke:#2D4171;stroke-width:2.7079;stroke-linecap:round;stroke-miterlimit:10;} .st24{fill:none;stroke:#4F70B6;stroke-width:1.088;stroke-miterlimit:10;} .st25{fill:#7698CF;stroke:#2D4171;stroke-width:3;stroke-miterlimit:10;} .st26{fill:#D9EAF8;stroke:#4F70B6;stroke-width:3;stroke-miterlimit:10;} .st27{fill:#4F70B6;stroke:#2D4171;stroke-width:3;stroke-miterlimit:10;} .st28{fill:#FBD7A7;stroke:#A79072;stroke-width:3;stroke-miterlimit:10;} .st29{fill:none;stroke:#7698CF;stroke-width:1.0494;stroke-miterlimit:10;} .st30{fill:none;stroke:#2D4171;stroke-width:1.0494;stroke-miterlimit:10;} .st31{fill:none;stroke:#D9EAF8;stroke-width:1.2626;stroke-miterlimit:10;} .st32{fill:none;stroke:#4F70B6;stroke-width:1.2626;stroke-miterlimit:10;} .st33{fill:none;stroke:#7698CF;stroke-width:1.2626;stroke-miterlimit:10;} .st34{fill:none;stroke:#2D4171;stroke-width:1.2626;stroke-miterlimit:10;} .st35{fill:none;stroke:#7698CF;stroke-width:1.3994;stroke-miterlimit:10;} .st36{fill:none;stroke:#4F70B6;stroke-width:1.0494;stroke-miterlimit:10;} .st37{fill:none;stroke:#D9EAF8;stroke-width:1.0494;stroke-miterlimit:10;} .st38{fill:#FFFFFF;stroke:#2D4171;stroke-width:3;stroke-miterlimit:10;} .st39{fill:none;stroke:#000000;stroke-width:0.3;}
  </style>
  <g id="Layer_30">
    <path class="st6" d="M169.9 353.3v7.5s9.7-14.1 20.8-3.7c-10.4 9-20.8-3.8-20.8-3.8zm0-34.5v7.5s9.7-14.1 20.8-3.7c-10.4 9-20.8-3.8-20.8-3.8zm0-34.5v7.5s9.7-14.1 20.8-3.7c-10.4 9-20.8-3.8-20.8-3.8zm0-36.8v7.5s9.7-14.1 20.8-3.7c-10.4 9-20.8-3.8-20.8-3.8zm0-33.5v7.5s9.7-14.1 20.8-3.7c-10.4 9-20.8-3.8-20.8-3.8zm0-34.9v7.5s9.7-14.1 20.8-3.7c-10.4 9-20.8-3.8-20.8-3.8zm0-33.2v7.5s9.7-14.1 20.8-3.7c-10.4 9-20.8-3.8-20.8-3.8zm0-35.7v7.5s9.7-14.1 20.8-3.7c-10.4 9-20.8-3.8-20.8-3.8zm0-33.4v7.5s9.7-14.1 20.8-3.7c-10.4 9-20.8-3.8-20.8-3.8zm0-33.4v7.5s9.7-14.1 20.8-3.7c-10.4 9-20.8-3.8-20.8-3.8z"/>
    <path class="st0" d="M12.3 68.6h143.5v28.2H12.3z"/>
    <path class="st5" d="M40.7 82.4c-.7.3-1.3.4-2 .4-1.1 0-2-.2-2.9-.6s-1.6-.9-2.2-1.5c-.6-.7-1-1.4-1.4-2.3-.3-.9-.5-1.8-.5-2.8 0-1 .2-2 .5-2.9.3-.9.8-1.7 1.4-2.3.6-.7 1.3-1.2 2.2-1.6.9-.4 1.8-.6 2.9-.6.7 0 1.4.1 2.1.3.7.2 1.3.5 1.8.9s1 .9 1.3 1.5.6 1.3.6 2.1h-2.9c-.2-.8-.5-1.4-1.1-1.8-.5-.4-1.2-.6-1.9-.6s-1.3.1-1.8.4c-.5.3-.9.6-1.2 1.1-.3.5-.5 1-.7 1.5-.1.6-.2 1.2-.2 1.8 0 .6.1 1.2.2 1.7.1.6.4 1.1.7 1.5s.7.8 1.2 1.1c.5.3 1.1.4 1.8.4 1 0 1.8-.3 2.4-.8.6-.5.9-1.3 1-2.2h-3.1V75h5.9v7.6h-2l-.3-1.6c-.5.7-1.2 1.2-1.8 1.4zm14.1-13.8c.6 0 1.2.1 1.7.3.5.2.9.5 1.3.8.4.4.6.8.8 1.2.2.5.3 1 .3 1.5 0 .8-.2 1.5-.5 2.1-.3.6-.9 1.1-1.7 1.4.4.1.7.3.9.5.2.2.5.5.6.8.2.3.3.6.3 1 .1.4.1.7.1 1.1v.8c0 .3 0 .6.1.9s.1.6.2.9c.1.3.2.5.3.7h-3.1c-.2-.4-.3-1-.3-1.6 0-.6-.1-1.2-.2-1.8-.1-.7-.3-1.3-.7-1.6-.3-.3-.9-.5-1.7-.5h-3.1v5.5H47v-14h7.8zm-1.1 6.3c.7 0 1.2-.2 1.6-.5.4-.3.5-.8.5-1.5s-.2-1.2-.5-1.5-.9-.4-1.6-.4h-3.4v3.9h3.4zm18.2-6.3v2.6h-7.4v3h6.8v2.4h-6.8V80H72v2.6H61.4v-14h10.5zm9.2 0l5.2 14h-3.2L82 79.4h-5.2l-1.1 3.1h-3.1l5.3-14h3.2zm.1 8.5L79.5 72l-1.8 5.1h3.5zm3.4-6v-2.6h11.5v2.6h-4.2v11.4h-3.1V71.1h-4.2zm25.1-2.5c.7 0 1.3.1 1.8.2s1 .3 1.4.6c.4.3.7.6.9 1.1s.3 1 .3 1.6c0 .7-.2 1.3-.5 1.8s-.8.9-1.4 1.2c.9.2 1.5.7 1.9 1.3.4.6.6 1.4.6 2.2 0 .7-.1 1.3-.4 1.8-.3.5-.6.9-1.1 1.3-.5.3-1 .6-1.6.7s-1.2.2-1.8.2H103v-14h6.7zm-.4 5.6c.5 0 1-.1 1.4-.4.4-.3.5-.7.5-1.3 0-.3-.1-.6-.2-.8s-.3-.4-.5-.5c-.2-.1-.4-.2-.7-.2s-.5-.1-.8-.1h-2.9v3.3h3.2zm.2 6c.3 0 .6 0 .9-.1.3-.1.5-.2.7-.3s.4-.3.5-.6c.1-.2.2-.5.2-.9 0-.7-.2-1.2-.6-1.5-.4-.3-.9-.5-1.6-.5h-3.3v3.8h3.2zm17.9-11.6v2.6H120v3h6.8v2.4H120V80h7.5v2.6h-10.6v-14h10.5zm9.2 0l5.2 14h-3.2l-1.1-3.1h-5.2l-1.1 3.1h-3.1l5.3-14h3.2zm.1 8.5L135 72l-1.8 5.1h3.5zm13.8-8.5c.6 0 1.2.1 1.7.3.5.2.9.5 1.3.8.4.4.6.8.8 1.2.2.5.3 1 .3 1.5 0 .8-.2 1.5-.5 2.1-.3.6-.9 1.1-1.7 1.4.4.1.7.3.9.5.2.2.5.5.6.8.2.3.3.6.3 1 .1.4.1.7.1 1.1v.8c0 .3 0 .6.1.9s.1.6.2.9c.1.3.2.5.3.7H152c-.2-.4-.3-1-.3-1.6 0-.6-.1-1.2-.2-1.8-.1-.7-.3-1.3-.7-1.6-.3-.3-.9-.5-1.7-.5H146v5.5h-3v-14h7.5zm-1.1 6.3c.7 0 1.2-.2 1.6-.5.4-.3.5-.8.5-1.5s-.2-1.2-.5-1.5-.9-.5-1.6-.5H146v3.9h3.4zm-13.7 9.6V90h3.3v.7h-4.1v-6.2h.8zm6.6 0l2.4 6.2h-.9l-.7-1.9h-2.6l-.7 1.9h-.8l2.4-6.2h.9zm.6 3.6l-1-2.9-1.1 2.9h2.1zm3.3-3.6v3.1l3.2-3.1h1.1l-2.6 2.5 2.7 3.7h-1l-2.2-3.1-1 1v2.2h-.8v-6.2h.6zm9.2 0v.7H152v2h3.2v.7H152V90h3.5v.7h-4.3v-6.2h4.2z"/>
    <path class="st0" d="M29.5 33.9h126.3v32.9H29.5z"/>
    <path class="st5" d="M135.2 33.9v5.5h3.3v.7h-4.1v-6.2h.8zm6.8 0l2.4 6.2h-.9l-.7-1.9h-2.6l-.7 1.9h-.8l2.4-6.2h.9zm.5 3.7l-1-2.9-1.1 2.9h2.1zm3.5-3.7V37l3.2-3.1h1.1l-2.6 2.5 2.7 3.7h-1L147 37l-1 1v2.2h-.8V34h.8zm9.4 0v.7H152v2h3.2v.7H152v2.1h3.5v.7h-4.3v-6.2h4.2zM41.6 43l5.2 14h-3.2l-1.1-3.1h-5.2l-1 3.1h-3.1l5.3-14h3.1zm.2 8.6L40 46.5l-1.8 5.1h3.6zm3.8-6V43H57v2.6h-4.2V57h-3.1V45.6h-4.1zM62.1 43v5.4h5.7V43h3.1v14h-3.1v-6h-5.7v6H59V43h3.1zm18.8 0l5.2 14h-3.2l-1.1-3.1h-5.2l-1 3.1h-3.1l5.3-14h3.1zm.2 8.6l-1.8-5.1-1.8 5.1h3.6zM94.3 43c.7 0 1.3.1 1.8.2s1 .3 1.4.6c.4.3.7.6.9 1.1s.3 1 .3 1.6c0 .7-.2 1.3-.5 1.8s-.8.9-1.4 1.2c.9.2 1.5.7 1.9 1.3.4.6.6 1.4.6 2.2 0 .7-.1 1.3-.4 1.8-.3.5-.6.9-1.1 1.3-.5.3-1 .6-1.6.7s-1.1.2-1.7.2h-6.8V43h6.6zm-.4 5.7c.5 0 1-.1 1.4-.4.4-.3.5-.7.5-1.3 0-.3-.1-.6-.2-.8s-.3-.4-.5-.5c-.2-.1-.4-.2-.7-.2s-.5-.1-.8-.1h-2.9v3.3h3.2zm.2 5.9c.3 0 .6 0 .9-.1.3-.1.5-.2.7-.3s.4-.3.5-.6c.1-.2.2-.5.2-.9 0-.7-.2-1.2-.6-1.5-.4-.3-.9-.5-1.6-.5h-3.3v3.8h3.2zM108.9 43l5.2 14h-3.2l-1.1-3.1h-5.2l-1.1 3.1h-3.1l5.3-14h3.2zm.2 8.6l-1.8-5.1-1.8 5.1h3.6zm9 2c.2.3.4.6.7.8.3.2.6.4 1 .5.4.1.8.1 1.2.1.3 0 .6 0 .9-.1.3 0 .6-.1.9-.3.3-.1.5-.3.7-.5.2-.2.3-.5.3-.9s-.1-.7-.4-.9l-.9-.6s-.8-.3-1.3-.4c-.5-.1-1-.2-1.5-.4-.5-.1-1-.3-1.5-.5s-.9-.4-1.3-.7-.7-.7-1-1.1c-.2-.5-.4-1-.4-1.6 0-.7.2-1.3.5-1.9.3-.5.7-1 1.2-1.3s1.1-.6 1.7-.8c.6-.2 1.3-.3 1.9-.3.7 0 1.4.1 2.1.2.7.2 1.3.4 1.8.8s.9.8 1.2 1.4.5 1.3.5 2.1h-3c0-.4-.1-.8-.3-1-.2-.3-.3-.5-.6-.6-.2-.2-.5-.3-.9-.3s-.7-.1-1-.1c-.2 0-.5 0-.7.1s-.5.1-.7.3c-.2.1-.4.3-.5.5s-.2.4-.2.7c0 .3.1.5.2.7.1.2.3.3.6.5.3.1.7.3 1.3.4s1.2.3 2.1.5c.3.1.6.1 1.1.3.5.1.9.4 1.4.7s.9.7 1.2 1.2.5 1.1.5 1.9c0 .6-.1 1.2-.4 1.8s-.6 1-1.1 1.4c-.5.4-1.1.7-1.8.9s-1.6.3-2.5.3c-.8 0-1.5-.1-2.2-.3s-1.4-.5-1.9-.9c-.6-.4-1-.9-1.3-1.5-.3-.6-.5-1.4-.5-2.2h3c-.4.3-.3.7-.1 1.1zm19.7-6.9c-.2-.3-.4-.6-.7-.8-.3-.2-.6-.4-.9-.5-.3-.1-.7-.2-1.1-.2-.7 0-1.3.1-1.8.4-.5.3-.9.6-1.2 1.1-.3.5-.5 1-.7 1.5-.1.6-.2 1.2-.2 1.8 0 .6.1 1.2.2 1.7.1.6.4 1.1.7 1.5.3.4.7.8 1.2 1.1.5.3 1.1.4 1.8.4.9 0 1.7-.3 2.2-.9.5-.6.9-1.3 1-2.3h3c-.1.9-.3 1.7-.6 2.4s-.8 1.3-1.3 1.8-1.2.9-1.9 1.1c-.7.3-1.5.4-2.4.4-1.1 0-2-.2-2.9-.6-.9-.4-1.6-.9-2.2-1.5-.6-.7-1-1.4-1.4-2.3-.3-.9-.5-1.8-.5-2.8 0-1 .2-2 .5-2.9.3-.9.8-1.7 1.4-2.3.6-.7 1.3-1.2 2.2-1.6.9-.4 1.8-.6 2.9-.6.8 0 1.5.1 2.2.3.7.2 1.3.5 1.8 1 .5.4 1 1 1.3 1.6.4.6.6 1.3.7 2.2h-3c0-.3-.1-.7-.3-1zm12.9-3.7l5.2 14h-3.2l-1.1-3.1h-5.2l-1.1 3.1h-3.1l5.3-14h3.2zm.2 8.6l-1.8-5.1-1.8 5.1h3.6zm57.5-7.9c.4 0 .8 0 1.1.1s.6.2.9.4c.2.2.4.4.6.7.1.3.2.6.2 1s-.1.8-.3 1.1c-.2.3-.5.5-.9.7.5.2.9.4 1.2.8.3.4.4.8.4 1.4 0 .4-.1.8-.3 1.1-.2.3-.4.6-.7.8-.3.2-.6.3-1 .4s-.7.1-1.1.1h-4.1v-8.5h4zm-.2 3.5c.3 0 .6-.1.8-.2s.3-.4.3-.8c0-.2 0-.4-.1-.5l-.3-.3c-.1-.1-.3-.1-.4-.1h-2.3v2h2zm.1 3.6c.2 0 .4 0 .5-.1.2 0 .3-.1.4-.2l.3-.3c.1-.1.1-.3.1-.6 0-.4-.1-.8-.4-.9-.2-.2-.6-.3-1-.3h-2v2.3h2.1zm6.4-7.1v8.5h-1.9v-8.5h1.9zm6.7 8.5c-.4.2-.8.3-1.2.3-.7 0-1.2-.1-1.8-.3-.5-.2-1-.5-1.3-.9-.4-.4-.6-.9-.8-1.4-.2-.5-.3-1.1-.3-1.7 0-.6.1-1.2.3-1.8.2-.5.5-1 .8-1.4.4-.4.8-.7 1.3-1s1.1-.3 1.8-.3c.4 0 .9.1 1.3.2s.8.3 1.1.6.6.6.8.9c.2.4.3.8.4 1.3H222c-.1-.5-.3-.8-.6-1.1-.3-.2-.7-.4-1.2-.4-.4 0-.8.1-1.1.2s-.5.4-.7.7-.3.6-.4.9-.1.7-.1 1.1c0 .4 0 .7.1 1 .1.3.2.6.4.9.2.3.4.5.7.7s.7.2 1.1.2c.6 0 1.1-.2 1.4-.5.3-.3.5-.8.6-1.4h-1.9v-1.4h3.6v4.6h-1.2l-.2-1c-.3.5-.7.8-1.1 1zm9.3-8.5v7h4.2v1.6h-6v-8.5h1.8zm9.4 0l3.2 8.5h-2l-.6-1.9h-3.2l-.7 1.9H235l3.2-8.5h1.9zm.2 5.3l-1.1-3.1L238 49h2.3zm5.7-5.3v3.5l3.3-3.5h2.3l-3.3 3.4 3.7 5.2h-2.4l-2.6-3.8-1.1 1.1v2.8H244v-8.5h2zm13.1 0v1.6h-4.5v1.8h4.1v1.5h-4.1v2.1h4.6v1.6h-6.5v-8.5h6.4zm4 1.6v-1.6h7v1.6h-2.6v7h-1.9v-7h-2.5zm12.6-1.6c.4 0 .7.1 1 .2.3.1.6.3.8.5.2.2.4.5.5.7.1.3.2.6.2.9 0 .5-.1.9-.3 1.3-.2.4-.6.6-1 .8l.6.3s.3.3.4.5.2.4.2.6c0 .2.1.4.1.6v1.1s.1.4.1.5c0 .2.1.3.2.4h-1.9c-.1-.3-.2-.6-.2-1s-.1-.7-.1-1.1c-.1-.4-.2-.8-.4-1-.2-.2-.5-.3-1-.3H273V52h-1.9v-8.5h4.6zm-.6 3.9c.4 0 .8-.1 1-.3s.3-.5.3-.9-.1-.7-.3-.9-.5-.3-1-.3H273v2.4h2.1zm4.6-1.4c.2-.5.5-1 .8-1.4.4-.4.8-.7 1.3-1s1.1-.3 1.8-.3 1.3.1 1.8.3 1 .6 1.3 1c.4.4.6.9.8 1.4s.3 1.1.3 1.8c0 .6-.1 1.2-.3 1.7s-.5 1-.8 1.4c-.4.4-.8.7-1.3.9-.5.2-1.1.3-1.8.3s-1.2-.1-1.8-.3c-.5-.2-1-.5-1.3-.9-.4-.4-.6-.9-.8-1.4-.2-.5-.3-1.1-.3-1.7 0-.6.1-1.2.3-1.8zm1.7 2.9c.1.3.2.6.4.9.2.3.4.5.7.7s.7.2 1.1.2.8-.1 1.1-.2.5-.4.7-.7c.2-.3.3-.6.4-.9.1-.3.1-.7.1-1 0-.4 0-.7-.1-1.1s-.2-.7-.4-.9-.4-.5-.7-.7-.7-.2-1.1-.2-.8.1-1.1.2-.5.4-.7.7-.3.6-.4.9-.1.7-.1 1.1c0 .3 0 .6.1 1zm14 2.5c-.6.6-1.5.8-2.7.8-1.2 0-2.1-.3-2.7-.8-.6-.6-1-1.4-1-2.6v-5.3h1.9V49c0 .2 0 .5.1.7 0 .2.1.4.3.6.1.2.3.3.5.4.2.1.5.2.9.2.7 0 1.1-.1 1.4-.4.3-.3.4-.8.4-1.4v-5.3h1.9V49c-.1 1.2-.4 2-1 2.6zm1.9-6.3v-1.6h7v1.6h-2.6v7h-1.9v-7h-2.5z"/>
    <path class="st6" d="M118.3 7.4V2.9h13.1v4.5h-4v15.7h-5.3V7.4h-3.8zm14.1.8c.2-1.3.7-2.4 1.2-3.3.6-.8 1.3-1.5 2.2-1.8.9-.4 2.1-.6 3.4-.6s2.5.2 3.4.6c.9.4 1.7 1 2.2 1.8.6.8 1 1.9 1.2 3.3s.4 2.9.4 4.8-.1 3.5-.4 4.8c-.2 1.3-.7 2.4-1.2 3.3-.6.8-1.3 1.4-2.2 1.8-.9.4-2.1.5-3.4.5s-2.5-.2-3.4-.5c-.9-.4-1.7-1-2.2-1.8-.6-.8-1-1.9-1.2-3.3-.2-1.3-.4-2.9-.4-4.8s.1-3.5.4-4.8zm5.1 8.2c0 .9.1 1.6.2 2.1s.3.9.5 1.1c.2.2.6.3.9.3s.7-.1.9-.3c.2-.2.4-.6.5-1.1.1-.5.2-1.2.2-2.1 0-.9.1-2 .1-3.4s0-2.5-.1-3.4c0-.9-.1-1.6-.2-2.1s-.3-.9-.5-1.1c-.2-.2-.6-.3-.9-.3s-.7.1-.9.3c-.2.2-.4.6-.5 1.1-.1.5-.2 1.2-.2 2.1 0 .9-.1 2-.1 3.4s0 2.5.1 3.4zM156 2.9c1 0 1.9.2 2.6.5.7.3 1.3.8 1.8 1.3.5.6.8 1.2 1.1 2 .2.8.3 1.6.3 2.5 0 2.1-.6 3.7-1.7 4.7s-2.8 1.6-4.9 1.6h-1.8v7.7h-5.3V2.9h7.9zm-1.6 8.7c.7 0 1.2-.2 1.5-.6.3-.4.5-1 .5-1.9 0-1.6-.7-2.5-2-2.5h-1v4.9h1zm24.3-3.3c0-.6-.1-1.1-.4-1.5s-.6-.6-1.1-.6c-.6 0-1 .2-1.2.6-.3.4-.4.8-.4 1.2 0 .7.2 1.2.6 1.6.4.4 1 .7 1.6 1 .6.3 1.3.6 2.1.9s1.4.7 2.1 1.1c.6.5 1.2 1.1 1.6 1.9.4.8.6 1.8.6 3 0 2.1-.6 3.7-1.8 4.7s-3 1.5-5.3 1.5c-1.1 0-2.1-.1-2.9-.3s-1.5-.5-2.1-.9c-.6-.4-1-1-1.3-1.7-.3-.7-.5-1.6-.5-2.7v-.7h5.1v.5c0 .9.2 1.5.5 1.8.3.3.7.5 1.2.5s1-.2 1.3-.6c.3-.4.4-.8.4-1.4 0-.7-.2-1.2-.6-1.6-.4-.4-.9-.7-1.5-1-.6-.3-1.3-.6-2-.8s-1.4-.7-2-1.1-1.1-1-1.5-1.8-.6-1.7-.6-2.9c0-2.1.5-3.6 1.6-4.7s2.8-1.6 5-1.6c2.3 0 4 .5 5 1.5s1.5 2.6 1.5 4.7h-4.9v-.6zm15-5.4c1 0 1.9.2 2.6.5.7.3 1.3.8 1.8 1.3.5.6.8 1.2 1.1 2 .2.8.3 1.6.3 2.5 0 2.1-.6 3.7-1.7 4.7s-2.8 1.6-4.9 1.6h-1.8v7.7h-5.3V2.9h7.9zm-1.6 8.7c.7 0 1.2-.2 1.5-.6.3-.4.5-1 .5-1.9 0-1.6-.7-2.5-2-2.5h-1v4.9h1zm8.9-3.4c.2-1.3.7-2.4 1.2-3.3.6-.8 1.3-1.5 2.2-1.8.9-.4 2.1-.6 3.4-.6s2.5.2 3.4.6c.9.4 1.7 1 2.2 1.8.6.8 1 1.9 1.2 3.3s.4 2.9.4 4.8-.1 3.5-.4 4.8c-.2 1.3-.7 2.4-1.2 3.3-.6.8-1.3 1.4-2.2 1.8-.9.4-2.1.5-3.4.5s-2.5-.2-3.4-.5c-.9-.4-1.7-1-2.2-1.8-.6-.8-1-1.9-1.2-3.3-.2-1.3-.4-2.9-.4-4.8s.2-3.5.4-4.8zm5.1 8.2c0 .9.1 1.6.2 2.1s.3.9.5 1.1c.2.2.6.3.9.3s.7-.1.9-.3c.2-.2.4-.6.5-1.1.1-.5.2-1.2.2-2.1 0-.9.1-2 .1-3.4s0-2.5-.1-3.4c0-.9-.1-1.6-.2-2.1s-.3-.9-.5-1.1c-.2-.2-.6-.3-.9-.3s-.7.1-.9.3c-.2.2-.4.6-.5 1.1-.1.5-.2 1.2-.2 2.1 0 .9-.1 2-.1 3.4s.1 2.5.1 3.4zm9.6-9V2.9h13.1v4.5h-4v15.7h-5.3V7.4h-3.8zm22.2.9c0-.6-.1-1.1-.4-1.5s-.6-.6-1.1-.6c-.6 0-1 .2-1.2.6-.3.4-.4.8-.4 1.2 0 .7.2 1.2.6 1.6.4.4 1 .7 1.6 1 .6.3 1.3.6 2.1.9s1.4.7 2.1 1.1c.6.5 1.2 1.1 1.6 1.9.4.8.6 1.8.6 3 0 2.1-.6 3.7-1.8 4.7s-3 1.5-5.3 1.5c-1.1 0-2.1-.1-2.9-.3s-1.5-.5-2.1-.9c-.6-.4-1-1-1.3-1.7-.3-.7-.5-1.6-.5-2.7v-.7h5.1v.5c0 .9.2 1.5.5 1.8.3.3.7.5 1.2.5s1-.2 1.3-.6c.3-.4.4-.8.4-1.4 0-.7-.2-1.2-.6-1.6-.4-.4-.9-.7-1.5-1-.6-.3-1.3-.6-2-.8s-1.4-.7-2-1.1-1.1-1-1.5-1.8-.6-1.7-.6-2.9c0-2.1.5-3.6 1.6-4.7s2.8-1.6 5-1.6c2.3 0 4 .5 5 1.5s1.5 2.6 1.5 4.7H238v-.6z"/>
    <path class="st5" d="M203.8 78.4v-1.6h7v1.6h-2.6v7h-1.9v-7h-2.5zm12.5-1.5c.4 0 .7.1 1 .2.3.1.6.3.8.5s.4.5.5.7c.1.3.2.6.2.9 0 .5-.1.9-.3 1.3-.2.4-.6.6-1 .8l.6.3s.3.3.4.5.2.4.2.6.1.4.1.6v1.1c0 .2.1.4.1.5 0 .2.1.3.2.4h-1.9c-.1-.3-.2-.6-.2-1s-.1-.7-.1-1.1c-.1-.4-.2-.8-.4-1-.2-.2-.5-.3-1-.3h-1.9v3.3h-1.9v-8.5h4.6zm-.6 3.8c.4 0 .8-.1 1-.3.2-.2.3-.5.3-.9s-.1-.7-.3-.9c-.2-.2-.5-.3-1-.3h-2.1v2.4h2.1zm4.6-1.3c.2-.5.5-1 .8-1.4.4-.4.8-.7 1.3-1s1.1-.3 1.8-.3 1.3.1 1.8.3 1 .6 1.3 1c.4.4.6.9.8 1.4s.3 1.1.3 1.8c0 .6-.1 1.2-.3 1.7s-.5 1-.8 1.4c-.4.4-.8.7-1.3.9-.5.2-1.1.3-1.8.3s-1.2-.1-1.8-.3c-.5-.2-1-.5-1.3-.9-.4-.4-.6-.9-.8-1.4s-.3-1.1-.3-1.7c0-.7.1-1.3.3-1.8zm1.7 2.8c.1.3.2.6.4.9.2.3.4.5.7.7.3.2.7.2 1.1.2s.8-.1 1.1-.2c.3-.2.5-.4.7-.7.2-.3.3-.6.4-.9.1-.3.1-.7.1-1 0-.4 0-.7-.1-1.1-.1-.4-.2-.7-.4-.9s-.4-.5-.7-.7c-.3-.2-.7-.2-1.1-.2s-.8.1-1.1.2c-.3.2-.5.4-.7.7s-.3.6-.4.9c-.1.4-.1.7-.1 1.1 0 .3 0 .7.1 1zm11.5-5.3c.5 0 1 .1 1.4.2.4.2.7.4.9.6s.4.5.5.9.2.7.2 1c0 .3-.1.7-.2 1s-.3.6-.5.9-.5.5-.9.6c-.4.2-.8.2-1.4.2h-2v3.1h-1.9v-8.5h3.9zm-.5 4h.6c.2 0 .4-.1.5-.2.2-.1.3-.2.4-.4.1-.2.1-.4.1-.7 0-.3 0-.5-.1-.7-.1-.2-.2-.3-.4-.4s-.3-.2-.5-.2h-2.1v2.6h1.5zm6.5-4v3.3h3.5v-3.3h1.9v8.5H243v-3.7h-3.5v3.7h-1.9v-8.5h1.9zm6.1 0h2.1l2 3.4 2-3.4h2.1l-3.2 5.3v3.3h-1.9v-3.3l-3.1-5.3zm14.1 0v7h4.2v1.6h-6V77h1.8zm9.5 0l3.2 8.5h-2l-.6-1.9h-3.2l-.7 1.9H264l3.2-8.5h2zm.1 5.2l-1.1-3.1-1.1 3.1h2.2zm5.7-5.2v3.5l3.3-3.5h2.3l-3.3 3.4 3.7 5.2h-2.4l-2.6-3.8-1.1 1.1v2.8H273v-8.5h2zm13.2 0v1.6h-4.5v1.8h4.1v1.5h-4.1v2.1h4.6v1.6h-6.5V77h6.4zm4 1.5v-1.6h7v1.6h-2.6v7h-1.9v-7h-2.5zm12.6-1.5c.4 0 .7.1 1 .2.3.1.6.3.8.5.2.2.4.5.5.7.1.3.2.6.2.9 0 .5-.1.9-.3 1.3-.2.4-.6.6-1 .8l.6.3s.3.3.4.5.2.4.2.6c0 .2.1.4.1.6v1.1s.1.4.1.5c0 .2.1.3.2.4h-1.9c-.1-.3-.2-.6-.2-1s-.1-.7-.1-1.1c-.1-.4-.2-.8-.4-1-.2-.2-.5-.3-1-.3h-1.9v3.3h-1.9v-8.5h4.6zm-.7 3.8c.4 0 .8-.1 1-.3s.3-.5.3-.9-.1-.7-.3-.9-.5-.3-1-.3H302v2.4h2.1zm4.6-1.3c.2-.5.5-1 .8-1.4.4-.4.8-.7 1.3-1s1.1-.3 1.8-.3 1.3.1 1.8.3 1 .6 1.3 1c.4.4.6.9.8 1.4s.3 1.1.3 1.8c0 .6-.1 1.2-.3 1.7s-.5 1-.8 1.4c-.4.4-.8.7-1.3.9-.5.2-1.1.3-1.8.3s-1.2-.1-1.8-.3c-.5-.2-1-.5-1.3-.9-.4-.4-.6-.9-.8-1.4-.2-.5-.3-1.1-.3-1.7 0-.7.1-1.3.3-1.8zm1.8 2.8c.1.3.2.6.4.9.2.3.4.5.7.7s.7.2 1.1.2.8-.1 1.1-.2.5-.4.7-.7c.2-.3.3-.6.4-.9.1-.3.1-.7.1-1 0-.4 0-.7-.1-1.1s-.2-.7-.4-.9-.4-.5-.7-.7-.7-.2-1.1-.2-.8.1-1.1.2-.5.4-.7.7-.3.6-.4.9-.1.7-.1 1.1c-.1.3 0 .7.1 1zm13.9 2.5c-.6.6-1.5.8-2.7.8-1.2 0-2.1-.3-2.7-.8-.6-.6-1-1.4-1-2.6v-5.3h1.9v5.3c0 .2 0 .5.1.7 0 .2.1.4.3.6.1.2.3.3.5.4.2.1.5.2.9.2.7 0 1.1-.1 1.4-.4.3-.3.4-.8.4-1.4v-5.3h1.9v5.3c0 1.1-.3 2-1 2.5zm1.9-6.3v-1.6h7v1.6h-2.6v7h-1.9v-7h-2.5zm-120.4 38.5c.1.2.2.4.4.5l.6.3c.2.1.5.1.7.1h.5s.4-.1.5-.2c.2-.1.3-.2.4-.3.1-.1.2-.3.2-.5s-.1-.4-.2-.6-.3-.3-.6-.4-.5-.2-.8-.3c-.3-.1-.6-.2-.9-.2l-.9-.3c-.3-.1-.6-.3-.8-.4-.2-.2-.4-.4-.6-.7s-.2-.6-.2-1 .1-.8.3-1.1c.2-.3.4-.6.7-.8.3-.2.6-.4 1-.5.4-.1.8-.2 1.1-.2.4 0 .9 0 1.3.1s.8.3 1.1.5c.3.2.6.5.8.9.2.3.3.8.3 1.3H209c0-.3-.1-.5-.2-.6s-.2-.3-.4-.4c-.2-.1-.3-.2-.5-.2s-.4-.1-.6-.1h-.5c-.2 0-.3.1-.4.2l-.3.3c-.1.1-.1.3-.1.5s0 .3.1.4c.1.1.2.2.4.3.2.1.4.2.8.3.3.1.8.2 1.3.3.2 0 .4.1.7.2.3.1.6.2.8.4s.5.4.7.7c.2.3.3.7.3 1.2 0 .4-.1.8-.2 1.1-.2.3-.4.6-.7.9-.3.2-.7.4-1.1.6-.4.1-1 .2-1.5.2s-.9-.1-1.4-.2c-.4-.1-.8-.3-1.2-.5-.3-.2-.6-.6-.8-.9-.2-.4-.3-.8-.3-1.4h1.8c0 .1.1.3.2.5zm8.9-6.4l2 5.9 1.9-5.9h2.6v8.5h-1.8v-6l-2.1 6.1H216l-2.1-6v6h-1.8v-8.5h2.7zm12.5 0l3.2 8.5h-2l-.6-1.9h-3.2l-.7 1.9h-1.9l3.2-8.5h2zm.1 5.2l-1.1-3.1-1.1 3.1h2.2zm5.7-5.2v7h4.2v1.6h-6v-8.5h1.8zm7.1 0v7h4.2v1.6h-6v-8.5h1.8zm11.2 0l2 5.9 1.9-5.9h2.6v8.5h-1.8v-6l-2.1 6.1h-1.4l-2.1-6v6h-1.8v-8.5h2.7zm8.1 2.5c.2-.5.5-1 .8-1.4.4-.4.8-.7 1.3-1s1.1-.3 1.8-.3 1.3.1 1.8.3 1 .6 1.3 1c.4.4.6.9.8 1.4s.3 1.1.3 1.8c0 .6-.1 1.2-.3 1.7s-.5 1-.8 1.4c-.4.4-.8.7-1.3.9-.5.2-1.1.3-1.8.3s-1.2-.1-1.8-.3c-.5-.2-1-.5-1.3-.9-.4-.4-.6-.9-.8-1.4s-.3-1.1-.3-1.7c0-.6.1-1.2.3-1.8zm1.8 2.8c.1.3.2.6.4.9.2.3.4.5.7.7.3.2.7.2 1.1.2s.8-.1 1.1-.2c.3-.2.5-.4.7-.7.2-.3.3-.6.4-.9.1-.3.1-.7.1-1 0-.4 0-.7-.1-1.1-.1-.4-.2-.7-.4-.9s-.4-.5-.7-.7c-.3-.2-.7-.2-1.1-.2s-.8.1-1.1.2c-.3.2-.5.4-.7.7s-.3.6-.4.9c-.1.4-.1.7-.1 1.1-.1.4 0 .7.1 1zm13.9 2.6c-.6.6-1.5.8-2.7.8-1.2 0-2.1-.3-2.7-.8-.6-.6-1-1.4-1-2.6v-5.3h1.9v5.3c0 .2 0 .5.1.7 0 .2.1.4.3.6.1.2.3.3.5.4.2.1.5.2.9.2.7 0 1.1-.1 1.4-.4.3-.3.4-.8.4-1.4v-5.3h1.9v5.3c0 1.1-.3 1.9-1 2.5zm1.9-6.3v-1.6h7v1.6h-2.6v7h-1.9v-7h-2.5zm9.9-1.6v3.3h3.5v-3.3h1.9v8.5h-1.9v-3.7H287v3.7h-1.9v-8.5h1.9zm14.3 0c.4 0 .8 0 1.1.1s.6.2.9.4c.2.2.4.4.6.7.1.3.2.6.2 1s-.1.8-.3 1.1-.5.5-.9.7c.5.2.9.4 1.2.8.3.4.4.8.4 1.4 0 .4-.1.8-.3 1.1-.2.3-.4.6-.7.8-.3.2-.6.3-1 .4-.4.1-.7.1-1.1.1h-4.1v-8.5h4zm-.2 3.4c.3 0 .6-.1.8-.2.2-.2.3-.4.3-.8 0-.2 0-.4-.1-.5l-.3-.3s-.3-.1-.4-.1h-2.3v2h2zm.1 3.7c.2 0 .4 0 .5-.1.2 0 .3-.1.4-.2l.3-.3c.1-.1.1-.3.1-.6 0-.4-.1-.8-.4-.9s-.6-.3-1-.3h-2v2.3h2.1zm8.8-7.1l3.2 8.5h-2l-.6-1.9h-3.2l-.7 1.9h-1.9l3.2-8.5h2zm.1 5.2l-1.1-3.1-1.1 3.1h2.2zm5.3 1.2c.1.2.2.4.4.5l.6.3c.2.1.5.1.7.1h.5c.2 0 .4-.1.5-.2.2-.1.3-.2.4-.3.1-.1.2-.3.2-.5s-.1-.4-.2-.6c-.1-.1-.3-.3-.6-.4s-.5-.2-.8-.3c-.3-.1-.6-.2-.9-.2l-.9-.3c-.3-.1-.6-.3-.8-.4s-.4-.4-.6-.7c-.1-.3-.2-.6-.2-1s.1-.8.3-1.1c.2-.3.4-.6.7-.8.3-.2.6-.4 1-.5.4-.1.8-.2 1.1-.2.4 0 .9 0 1.3.1s.8.3 1.1.5c.3.2.6.5.8.9.2.3.3.8.3 1.3h-1.8c0-.3-.1-.5-.2-.6s-.2-.3-.4-.4c-.2-.1-.3-.2-.5-.2s-.4-.1-.6-.1h-.5c-.2 0-.3.1-.4.2l-.3.3c-.1.1-.1.3-.1.5s0 .3.1.4c.1.1.2.2.4.3.2.1.4.2.8.3.3.1.8.2 1.3.3.2 0 .4.1.7.2.3.1.6.2.8.4s.5.4.7.7c.2.3.3.7.3 1.2 0 .4-.1.8-.2 1.1-.2.3-.4.6-.7.9-.3.2-.7.4-1.1.6-.4.1-1 .2-1.5.2s-.9-.1-1.4-.2c-.4-.1-.8-.3-1.2-.5-.3-.2-.6-.6-.8-.9-.2-.4-.3-.8-.3-1.4h1.8c0 .1.1.3.2.5zm7.7 0c.1.2.2.4.4.5l.6.3c.2.1.5.1.7.1h.5s.4-.1.5-.2c.2-.1.3-.2.4-.3.1-.1.2-.3.2-.5s-.1-.4-.2-.6-.3-.3-.6-.4-.5-.2-.8-.3c-.3-.1-.6-.2-.9-.2l-.9-.3c-.3-.1-.6-.3-.8-.4-.2-.2-.4-.4-.6-.7s-.2-.6-.2-1 .1-.8.3-1.1c.2-.3.4-.6.7-.8.3-.2.6-.4 1-.5.4-.1.8-.2 1.1-.2.4 0 .9 0 1.3.1s.8.3 1.1.5c.3.2.6.5.8.9.2.3.3.8.3 1.3h-1.8c0-.3-.1-.5-.2-.6s-.2-.3-.4-.4c-.2-.1-.3-.2-.5-.2s-.4-.1-.6-.1h-.5c-.2 0-.3.1-.4.2l-.3.3c-.1.1-.1.3-.1.5s0 .3.1.4c.1.1.2.2.4.3.2.1.4.2.8.3.3.1.8.2 1.3.3.2 0 .4.1.7.2.3.1.6.2.8.4s.5.4.7.7c.2.3.3.7.3 1.2 0 .4-.1.8-.2 1.1-.2.3-.4.6-.7.9-.3.2-.7.4-1.1.6-.4.1-1 .2-1.5.2s-.9-.1-1.4-.2c-.4-.1-.8-.3-1.2-.5-.3-.2-.6-.6-.8-.9-.2-.4-.3-.8-.3-1.4h1.8c.1.1.1.3.2.5zM203.5 146h2.1l2 3.4 2-3.4h2.1l-3.2 5.3v3.3h-1.9v-3.3l-3.1-5.3zm15.3 0v1.6h-4.5v1.8h4.1v1.5h-4.1v2.1h4.6v1.6h-6.5V146h6.4zm3.2 0v7h4.2v1.6h-6V146h1.8zm7.1 0v7h4.2v1.6h-6V146h1.8zm5.2 2.6c.2-.5.5-1 .8-1.4.4-.4.8-.7 1.3-1s1.1-.3 1.8-.3 1.3.1 1.8.3 1 .6 1.3 1c.4.4.6.9.8 1.4s.3 1.1.3 1.8c0 .6-.1 1.2-.3 1.7s-.5 1-.8 1.4c-.4.4-.8.7-1.3.9-.5.2-1.1.3-1.8.3s-1.2-.1-1.8-.3c-.5-.2-1-.5-1.3-.9-.4-.4-.6-.9-.8-1.4-.2-.5-.3-1.1-.3-1.7 0-.7.1-1.3.3-1.8zm1.7 2.8c.1.3.2.6.4.9.2.3.4.5.7.7s.7.2 1.1.2.8-.1 1.1-.2.5-.4.7-.7c.2-.3.3-.6.4-.9.1-.3.1-.7.1-1 0-.4 0-.7-.1-1.1s-.2-.7-.4-.9-.4-.5-.7-.7-.7-.2-1.1-.2-.8.1-1.1.2-.5.4-.7.7-.3.6-.4.9-.1.7-.1 1.1c0 .3 0 .7.1 1zm13.9 3.2l-1.4-5.8-1.4 5.8h-1.9l-2.3-8.5h1.9l1.4 5.8 1.5-5.8h1.8l1.5 5.9 1.4-5.9h1.8l-2.3 8.5h-2zm12.2-8.6c.5 0 1 .1 1.4.2.4.2.7.4.9.6s.4.5.5.9.2.7.2 1c0 .3-.1.7-.2 1s-.3.6-.5.9-.5.5-.9.6c-.4.2-.8.2-1.4.2h-2v3.1h-1.9V146h3.9zm-.5 4.1h.6c.2 0 .4-.1.5-.2.2-.1.3-.2.4-.4.1-.2.1-.4.1-.7 0-.3 0-.5-.1-.7-.1-.2-.2-.3-.4-.4s-.3-.2-.5-.2h-2.1v2.6h1.5zm11.1-4.1v1.6h-4.5v1.8h4.1v1.5h-4.1v2.1h4.6v1.6h-6.5V146h6.4zm5.9 0c.4 0 .7.1 1 .2.3.1.6.3.8.5.2.2.4.5.5.7.1.3.2.6.2.9 0 .5-.1.9-.3 1.3-.2.4-.6.6-1 .8l.6.3s.3.3.4.5.2.4.2.6c0 .2.1.4.1.6v1.1s.1.4.1.5c0 .2.1.3.2.4h-1.9c-.1-.3-.2-.6-.2-1s-.1-.7-.1-1.1c-.1-.4-.2-.8-.4-1-.2-.2-.5-.3-1-.3h-1.9v3.3H274V146h4.6zm-.6 3.9c.4 0 .8-.1 1-.3s.3-.5.3-.9-.1-.7-.3-.9-.5-.3-1-.3h-2.1v2.4h2.1zm10.1-1.6c-.1-.2-.3-.3-.4-.5l-.6-.3c-.2-.1-.4-.1-.7-.1-.4 0-.8.1-1.1.2s-.5.4-.7.7-.3.6-.4.9-.1.7-.1 1.1c0 .4 0 .7.1 1 .1.3.2.6.4.9.2.3.4.5.7.7s.7.2 1.1.2c.6 0 1-.2 1.3-.5s.5-.8.6-1.4h1.8c0 .5-.2 1-.4 1.4-.2.4-.5.8-.8 1.1-.3.3-.7.5-1.1.7-.4.2-.9.2-1.4.2-.7 0-1.2-.1-1.8-.3-.5-.2-1-.5-1.3-.9-.4-.4-.6-.9-.8-1.4-.2-.5-.3-1.1-.3-1.7 0-.6.1-1.2.3-1.8.2-.5.5-1 .8-1.4.4-.4.8-.7 1.3-1s1.1-.3 1.8-.3c.5 0 .9.1 1.3.2s.8.3 1.1.6.6.6.8 1c.2.4.4.8.4 1.3h-1.8c.1-.2.1-.4-.1-.6zm5.3-2.3v3.3h3.5V146h1.9v8.5h-1.9v-3.7h-3.5v3.7h-1.9V146h1.9zm-82.7 41.3l-1.4-5.8-1.4 5.8H206l-2.3-8.5h1.9l1.4 5.8 1.5-5.8h1.8l1.5 5.9 1.4-5.9h1.8l-2.3 8.5h-2zm6.9-8.5v3.3h3.5v-3.3h1.9v8.5h-1.9v-3.7h-3.5v3.7h-1.9v-8.5h1.9zm8.9 0v8.5h-1.9v-8.5h1.9zm.9 1.6v-1.6h7v1.6h-2.6v7H230v-7h-2.6zm14.4-1.6v1.6h-4.5v1.8h4.1v1.5h-4.1v2.1h4.6v1.6h-6.5v-8.5h6.4zm6.1 6.4c.1.2.2.4.4.5l.6.3c.2.1.5.1.7.1h.5c.2 0 .4-.1.5-.2.2-.1.3-.2.4-.3.1-.1.2-.3.2-.5s-.1-.4-.2-.6c-.1-.1-.3-.3-.6-.4s-.5-.2-.8-.3c-.3-.1-.6-.2-.9-.2l-.9-.3c-.3-.1-.6-.3-.8-.4s-.4-.4-.6-.7c-.1-.3-.2-.6-.2-1s.1-.8.3-1.1c.2-.3.4-.6.7-.8.3-.2.6-.4 1-.5.4-.1.8-.2 1.1-.2.4 0 .9 0 1.3.1s.8.3 1.1.5c.3.2.6.5.8.9.2.3.3.8.3 1.3H251c0-.3-.1-.5-.2-.6s-.2-.3-.4-.4c-.2-.1-.3-.2-.5-.2s-.4-.1-.6-.1h-.5c-.2 0-.3.1-.4.2l-.3.3c-.1.1-.1.3-.1.5s0 .3.1.4c.1.1.2.2.4.3.2.1.4.2.8.3.3.1.8.2 1.3.3.2 0 .4.1.7.2.3.1.6.2.8.4s.5.4.7.7c.2.3.3.7.3 1.2 0 .4-.1.8-.2 1.1-.2.3-.4.6-.7.9-.3.2-.7.4-1.1.6-.4.1-1 .2-1.5.2s-.9-.1-1.4-.2c-.4-.1-.8-.3-1.2-.5-.3-.2-.6-.6-.8-.9-.2-.4-.3-.8-.3-1.4h1.8c.1.1.1.3.2.5zm5.7-4.8v-1.6h7v1.6H258v7h-1.9v-7h-2.5zm14.3 6.3c-.6.6-1.5.8-2.7.8-1.2 0-2.1-.3-2.7-.8-.6-.6-1-1.4-1-2.6v-5.3h1.9v5.3c0 .2 0 .5.1.7 0 .2.1.4.3.6.1.2.3.3.5.4.2.1.5.2.9.2.7 0 1.1-.1 1.4-.4.3-.3.4-.8.4-1.4v-5.3h1.9v5.3c-.1 1.1-.4 1.9-1 2.5zm7.2-7.9c.4 0 .7.1 1 .2.3.1.6.3.8.5s.4.5.5.7c.1.3.2.6.2.9 0 .5-.1.9-.3 1.3-.2.4-.6.6-1 .8l.6.3s.3.3.4.5.2.4.2.6.1.4.1.6v1.1c0 .2.1.4.1.5 0 .2.1.3.2.4H276c-.1-.3-.2-.6-.2-1s-.1-.7-.1-1.1c-.1-.4-.2-.8-.4-1-.2-.2-.5-.3-1-.3h-1.9v3.3h-1.9v-8.5h4.6zm-.7 3.9c.4 0 .8-.1 1-.3.2-.2.3-.5.3-.9s-.1-.7-.3-.9c-.2-.2-.5-.3-1-.3h-2.1v2.4h2.1zm9.8 4.6c-.4.2-.8.3-1.2.3-.7 0-1.2-.1-1.8-.3-.5-.2-1-.5-1.3-.9-.4-.4-.6-.9-.8-1.4s-.3-1.1-.3-1.7c0-.6.1-1.2.3-1.8s.5-1 .8-1.4c.4-.4.8-.7 1.3-1s1.1-.3 1.8-.3c.4 0 .9.1 1.3.2s.8.3 1.1.6.6.6.8.9c.2.4.3.8.4 1.3h-1.8c-.1-.5-.3-.8-.6-1.1-.3-.2-.7-.4-1.2-.4-.4 0-.8.1-1.1.2-.3.2-.5.4-.7.7s-.3.6-.4.9c-.1.4-.1.7-.1 1.1 0 .4 0 .7.1 1 .1.3.2.6.4.9.2.3.4.5.7.7.3.2.7.2 1.1.2.6 0 1.1-.2 1.4-.5.3-.3.5-.8.6-1.4h-1.9v-1.4h3.6v4.6h-1.2l-.2-1c-.4.5-.7.8-1.1 1zm10.4-8.5v1.6h-4.5v1.8h4.1v1.5h-4.1v2.1h4.6v1.6h-6.5v-8.5h6.4zm1.3 2.5c.2-.5.5-1 .8-1.4.4-.4.8-.7 1.3-1s1.1-.3 1.8-.3 1.3.1 1.8.3 1 .6 1.3 1c.4.4.6.9.8 1.4s.3 1.1.3 1.8c0 .6-.1 1.2-.3 1.7s-.5 1-.8 1.4c-.4.4-.8.7-1.3.9-.5.2-1.1.3-1.8.3s-1.2-.1-1.8-.3c-.5-.2-1-.5-1.3-.9-.4-.4-.6-.9-.8-1.4-.2-.5-.3-1.1-.3-1.7 0-.6.1-1.2.3-1.8zm1.7 2.9c.1.3.2.6.4.9.2.3.4.5.7.7s.7.2 1.1.2.8-.1 1.1-.2.5-.4.7-.7c.2-.3.3-.6.4-.9.1-.3.1-.7.1-1 0-.4 0-.7-.1-1.1s-.2-.7-.4-.9-.4-.5-.7-.7-.7-.2-1.1-.2-.8.1-1.1.2-.5.4-.7.7-.3.6-.4.9-.1.7-.1 1.1c-.1.3 0 .6.1 1zm9.5-5.4l3.6 5.7v-5.7h1.8v8.5h-1.9l-3.6-5.7v5.7h-1.8v-8.5h1.9zm-98.7 34.5c.4 0 .8 0 1.1.1s.6.2.9.4c.2.2.4.4.6.7.1.3.2.6.2 1s-.1.8-.3 1.1c-.2.3-.5.5-.9.7.5.2.9.4 1.2.8.3.4.4.8.4 1.4 0 .4-.1.8-.3 1.1-.2.3-.4.6-.7.8-.3.2-.6.3-1 .4s-.7.1-1.1.1h-4.1v-8.5h4zm-.2 3.5c.3 0 .6-.1.8-.2s.3-.4.3-.8c0-.2 0-.4-.1-.5l-.3-.3c-.1-.1-.3-.1-.4-.1h-2.3v2h2zm.1 3.6c.2 0 .4 0 .5-.1.2 0 .3-.1.4-.2l.3-.3c.1-.1.1-.3.1-.6 0-.4-.1-.8-.4-.9-.2-.2-.6-.3-1-.3h-2v2.3h2.1zm6.4-7.1v7h4.2v1.6h-6v-8.5h1.8zm11.5 7.9c-.6.6-1.5.8-2.7.8-1.2 0-2.1-.3-2.7-.8-.6-.6-1-1.4-1-2.6v-5.3h1.9v5.3c0 .2 0 .5.1.7 0 .2.1.4.3.6.1.2.3.3.5.4.2.1.5.2.9.2.7 0 1.1-.1 1.4-.4.3-.3.4-.8.4-1.4v-5.3h1.9v5.3c0 1.1-.3 1.9-1 2.5zm9-7.9v1.6h-4.5v1.8h4.1v1.5h-4.1v2.1h4.6v1.6h-6.5v-8.5h6.4zm7.4 0v1.6h-4.1v2h3.6v1.5h-3.6v3.5h-1.9v-8.5h6zm2.9 0v8.5h-1.9v-8.5h1.9zm3.6 0l3.6 5.7v-5.7h1.8v8.5h-1.9l-3.6-5.7v5.7h-1.8v-8.5h1.9zm9.6 1.6v-1.6h7v1.6h-2.6v7h-1.9v-7h-2.5zm14.3 6.3c-.6.6-1.5.8-2.7.8-1.2 0-2.1-.3-2.7-.8-.6-.6-1-1.4-1-2.6v-5.3h1.9v5.3c0 .2 0 .5.1.7 0 .2.1.4.3.6.1.2.3.3.5.4.2.1.5.2.9.2.7 0 1.1-.1 1.4-.4.3-.3.4-.8.4-1.4v-5.3h1.9v5.3c0 1.1-.4 1.9-1 2.5zm4.4-7.9l3.6 5.7v-5.7h1.8v8.5h-1.9l-3.6-5.7v5.7h-1.8v-8.5h1.9zm11.3 0l3.2 8.5h-2l-.6-1.9h-3.2l-.7 1.9h-1.9l3.2-8.5h2zm.1 5.3l-1.1-3.1-1.1 3.1h2.2zm-80.1 28.3l3.2 8.5h-2l-.6-1.9h-3.2l-.7 1.9h-1.9l3.2-8.5h2zm.1 5.3l-1.1-3.1-1.1 3.1h2.2zm2-3.7v-1.6h7v1.6h-2.6v7h-1.9v-7h-2.5zm9.9-1.6v7h4.2v1.6h-6V247h1.8zm9.5 0l3.2 8.5h-2l-.6-1.9h-3.2l-.7 1.9H225l3.2-8.5h2zm.1 5.3l-1.1-3.1-1.1 3.1h2.2zm5.7-5.3l3.6 5.7v-5.7h1.8v8.5h-1.9l-3.6-5.7v5.7h-1.8v-8.5h1.9zm6.3 1.6v-1.6h7v1.6h-2.6v7h-1.9v-7h-2.5zm9.9-1.6v8.5h-1.9v-8.5h1.9zm7.1 2.3c-.1-.2-.3-.3-.4-.5l-.6-.3c-.2-.1-.4-.1-.7-.1-.4 0-.8.1-1.1.2s-.5.4-.7.7-.3.6-.4.9-.1.7-.1 1.1c0 .4 0 .7.1 1 .1.3.2.6.4.9.2.3.4.5.7.7s.7.2 1.1.2c.6 0 1-.2 1.3-.5s.5-.8.6-1.4h1.8c0 .5-.2 1-.4 1.4-.2.4-.5.8-.8 1.1-.3.3-.7.5-1.1.7-.4.2-.9.2-1.4.2-.7 0-1.2-.1-1.8-.3-.5-.2-1-.5-1.3-.9-.4-.4-.6-.9-.8-1.4-.2-.5-.3-1.1-.3-1.7 0-.6.1-1.2.3-1.8.2-.5.5-1 .8-1.4.4-.4.8-.7 1.3-1s1.1-.3 1.8-.3c.5 0 .9.1 1.3.2s.8.3 1.1.6.6.6.8 1c.2.4.4.8.4 1.3h-1.8c.1-.2 0-.4-.1-.6zm8.2 4.2c.1.2.2.4.4.5l.6.3c.2.1.5.1.7.1h.5c.2 0 .4-.1.5-.2.2-.1.3-.2.4-.3.1-.1.2-.3.2-.5s-.1-.4-.2-.6c-.1-.1-.3-.3-.6-.4s-.5-.2-.8-.3c-.3-.1-.6-.2-.9-.2l-.9-.3c-.3-.1-.6-.3-.8-.4s-.4-.4-.6-.7c-.1-.3-.2-.6-.2-1s.1-.8.3-1.1c.2-.3.4-.6.7-.8.3-.2.6-.4 1-.5.4-.1.8-.2 1.1-.2.4 0 .9 0 1.3.1s.8.3 1.1.5c.3.2.6.5.8.9.2.3.3.8.3 1.3h-1.8c0-.3-.1-.5-.2-.6s-.2-.3-.4-.4c-.2-.1-.3-.2-.5-.2s-.4-.1-.6-.1h-.5c-.2 0-.3.1-.4.2l-.3.3c-.1.1-.1.3-.1.5s0 .3.1.4c.1.1.2.2.4.3.2.1.4.2.8.3.3.1.8.2 1.3.3.2 0 .4.1.7.2.3.1.6.2.8.4s.5.4.7.7c.2.3.3.7.3 1.2 0 .4-.1.8-.2 1.1-.2.3-.4.6-.7.9-.3.2-.7.4-1.1.6-.4.1-1 .2-1.5.2s-.9-.1-1.4-.2c-.4-.1-.8-.3-1.2-.5-.3-.2-.6-.6-.8-.9-.2-.4-.3-.8-.3-1.4h1.8s.1.3.2.5zm10.6-6.5l3.2 8.5h-2l-.6-1.9h-3.2l-.7 1.9h-1.9l3.2-8.5h2zm.1 5.3l-1.1-3.1-1.1 3.1h2.2zm5.7-5.3v7h4.2v1.6h-6V247h1.8zm7.8 0l2 5.9 1.9-5.9h2.6v8.5h-1.8v-6.1l-2.1 6.1H293l-2.1-6v6h-1.8v-8.5h2.6zm8.2 2.6c.2-.5.5-1 .8-1.4.4-.4.8-.7 1.3-1s1.1-.3 1.8-.3 1.3.1 1.8.3 1 .6 1.3 1c.4.4.6.9.8 1.4s.3 1.1.3 1.8c0 .6-.1 1.2-.3 1.7s-.5 1-.8 1.4c-.4.4-.8.7-1.3.9-.5.2-1.1.3-1.8.3s-1.2-.1-1.8-.3c-.5-.2-1-.5-1.3-.9-.4-.4-.6-.9-.8-1.4s-.3-1.1-.3-1.7c0-.7.1-1.3.3-1.8zm1.7 2.8c.1.3.2.6.4.9.2.3.4.5.7.7.3.2.7.2 1.1.2s.8-.1 1.1-.2c.3-.2.5-.4.7-.7.2-.3.3-.6.4-.9.1-.3.1-.7.1-1 0-.4 0-.7-.1-1.1-.1-.4-.2-.7-.4-.9s-.4-.5-.7-.7c-.3-.2-.7-.2-1.1-.2s-.8.1-1.1.2c-.3.2-.5.4-.7.7s-.3.6-.4.9c-.1.4-.1.7-.1 1.1 0 .3 0 .7.1 1zm9.5-5.4l3.6 5.7v-5.7h1.8v8.5h-1.9l-3.6-5.7v5.7h-1.8v-8.5h1.9zm-100.4 45.6l-1.4-5.8-1.4 5.8H206l-2.3-8.5h1.9l1.4 5.8 1.5-5.8h1.8l1.5 5.9 1.4-5.9h1.8l-2.3 8.5h-2zm9-8.6l3.2 8.5h-2l-.6-1.9h-3.2l-.7 1.9h-1.9l3.2-8.5h2zm.1 5.3l-1.1-3.1-1.1 3.1h2.2zm5.7-5.3v7h4.2v1.6h-6V284h1.8zm7.1 0v7h4.2v1.6h-6V284h1.8zm11.6 0v1.6h-4.5v1.8h4.1v1.5h-4.1v2.1h4.6v1.6h-6.5V284h6.4zm.5 0h2.1l2 3.4 2-3.4h2.1l-3.2 5.3v3.3h-1.9v-3.3l-3.1-5.3zm15.3 0v1.6h-4.5v1.8h4.1v1.5h-4.1v2.1h4.6v1.6h-6.5V284h6.4zm-53.7 34.5l3.6 5.7v-5.7h1.8v8.5h-1.9l-3.6-5.7v5.7h-1.8v-8.5h1.9zm6.9 2.6c.2-.5.5-1 .8-1.4.4-.4.8-.7 1.3-1s1.1-.3 1.8-.3 1.3.1 1.8.3 1 .6 1.3 1c.4.4.6.9.8 1.4s.3 1.1.3 1.8c0 .6-.1 1.2-.3 1.7s-.5 1-.8 1.4c-.4.4-.8.7-1.3.9-.5.2-1.1.3-1.8.3s-1.2-.1-1.8-.3c-.5-.2-1-.5-1.3-.9-.4-.4-.6-.9-.8-1.4s-.3-1.1-.3-1.7c0-.7.1-1.3.3-1.8zm1.7 2.8c.1.3.2.6.4.9.2.3.4.5.7.7.3.2.7.2 1.1.2s.8-.1 1.1-.2c.3-.2.5-.4.7-.7.2-.3.3-.6.4-.9.1-.3.1-.7.1-1 0-.4 0-.7-.1-1.1-.1-.4-.2-.7-.4-.9s-.4-.5-.7-.7c-.3-.2-.7-.2-1.1-.2s-.8.1-1.1.2c-.3.2-.5.4-.7.7s-.3.6-.4.9c-.1.4-.1.7-.1 1.1 0 .3 0 .6.1 1zm7-3.8v-1.6h7v1.6h-2.6v7h-1.9v-7h-2.5zm9.9-1.6v3.3h3.5v-3.3h1.9v8.5h-1.9v-3.7h-3.5v3.7h-1.9v-8.5h1.9zm13.4 0v1.6h-4.5v1.8h4.1v1.5h-4.1v2.1h4.6v1.6h-6.5v-8.5h6.4zm5.9 0c.4 0 .7.1 1 .2.3.1.6.3.8.5.2.2.4.5.5.7.1.3.2.6.2.9 0 .5-.1.9-.3 1.3-.2.4-.6.6-1 .8l.6.3s.3.3.4.5.2.4.2.6c0 .2.1.4.1.6v1.1s.1.4.1.5c0 .2.1.3.2.4H252c-.1-.3-.2-.6-.2-1s-.1-.7-.1-1.1c-.1-.4-.2-.8-.4-1-.2-.2-.5-.3-1-.3h-1.9v3.3h-1.9v-8.5h4.6zm-.6 3.9c.4 0 .8-.1 1-.3s.3-.5.3-.9-.1-.7-.3-.9-.5-.3-1-.3h-2.1v2.4h2.1zm6.5-3.9l3.6 5.7v-5.7h1.8v8.5h-1.9l-3.6-5.7v5.7h-1.8v-8.5h1.9zm14.2 0c.5 0 1 .1 1.4.2.4.2.7.4.9.6s.4.5.5.9.2.7.2 1c0 .3-.1.7-.2 1s-.3.6-.5.9-.5.5-.9.6c-.4.2-.8.2-1.4.2h-2v3.1h-1.9v-8.5h3.9zm-.5 4h.6c.2 0 .4-.1.5-.2.2-.1.3-.2.4-.4.1-.2.1-.4.1-.7 0-.3 0-.5-.1-.7-.1-.2-.2-.3-.4-.4s-.3-.2-.5-.2h-2.1v2.6h1.5zm6.5-4v8.5h-1.9v-8.5h1.9zm3.6 0v3.5l3.3-3.5h2.3l-3.3 3.4 3.7 5.2h-2.4l-2.6-3.8-1.1 1.1v2.8h-1.9v-8.5h2zm13.1 0v1.6h-4.5v1.8h4.1v1.5h-4.1v2.1h4.6v1.6h-6.5v-8.5h6.4zm-87.6 34.5v7h4.2v1.6h-6V353h1.8zm9.5 0l3.2 8.5h-2l-.6-1.9h-3.2l-.7 1.9h-1.9l3.2-8.5h2zm.1 5.3l-1.1-3.1-1.1 3.1h2.2zm8.4-5.3c.4 0 .7.1 1 .2.3.1.6.3.8.5s.4.5.5.7c.1.3.2.6.2.9 0 .5-.1.9-.3 1.3-.2.4-.6.6-1 .8l.6.3s.3.3.4.5.2.4.2.6.1.4.1.6v1.1c0 .2.1.4.1.5 0 .2.1.3.2.4h-1.9c-.1-.3-.2-.6-.2-1s-.1-.7-.1-1.1c-.1-.4-.2-.8-.4-1-.2-.2-.5-.3-1-.3h-1.9v3.3h-1.9v-8.5h4.6zm-.6 3.9c.4 0 .8-.1 1-.3.2-.2.3-.5.3-.9s-.1-.7-.3-.9c-.2-.2-.5-.3-1-.3h-2.1v2.4h2.1zm9.7 4.6c-.4.2-.8.3-1.2.3-.7 0-1.2-.1-1.8-.3-.5-.2-1-.5-1.3-.9-.4-.4-.6-.9-.8-1.4s-.3-1.1-.3-1.7c0-.6.1-1.2.3-1.8s.5-1 .8-1.4c.4-.4.8-.7 1.3-1s1.1-.3 1.8-.3c.4 0 .9.1 1.3.2s.8.3 1.1.6.6.6.8.9c.2.4.3.8.4 1.3H234c-.1-.5-.3-.8-.6-1.1-.3-.2-.7-.4-1.2-.4-.4 0-.8.1-1.1.2-.3.2-.5.4-.7.7s-.3.6-.4.9c-.1.4-.1.7-.1 1.1 0 .4 0 .7.1 1 .1.3.2.6.4.9.2.3.4.5.7.7.3.2.7.2 1.1.2.6 0 1.1-.2 1.4-.5.3-.3.5-.8.6-1.4h-1.9v-1.4h3.6v4.6h-1.2l-.2-1c-.3.5-.7.8-1.1 1zm10.4-8.5v1.6h-4.5v1.8h4.1v1.5h-4.1v2.1h4.6v1.6h-6.5V353h6.4zm7.4 0l2 5.9 1.9-5.9h2.6v8.5H256v-6.1l-2.1 6.1h-1.4l-2.1-6v6h-1.8v-8.5h2.6zm8.1 2.6c.2-.5.5-1 .8-1.4.4-.4.8-.7 1.3-1s1.1-.3 1.8-.3 1.3.1 1.8.3 1 .6 1.3 1c.4.4.6.9.8 1.4s.3 1.1.3 1.8c0 .6-.1 1.2-.3 1.7s-.5 1-.8 1.4c-.4.4-.8.7-1.3.9-.5.2-1.1.3-1.8.3s-1.2-.1-1.8-.3c-.5-.2-1-.5-1.3-.9-.4-.4-.6-.9-.8-1.4s-.3-1.1-.3-1.7c0-.7.1-1.3.3-1.8zm1.7 2.8c.1.3.2.6.4.9.2.3.4.5.7.7.3.2.7.2 1.1.2s.8-.1 1.1-.2c.3-.2.5-.4.7-.7.2-.3.3-.6.4-.9.1-.3.1-.7.1-1 0-.4 0-.7-.1-1.1-.1-.4-.2-.7-.4-.9s-.4-.5-.7-.7c-.3-.2-.7-.2-1.1-.2s-.8.1-1.1.2c-.3.2-.5.4-.7.7s-.3.6-.4.9c-.1.4-.1.7-.1 1.1 0 .3 0 .6.1 1zm14 2.5c-.6.6-1.5.8-2.7.8-1.2 0-2.1-.3-2.7-.8-.6-.6-1-1.4-1-2.6v-5.3h1.9v5.3c0 .2 0 .5.1.7 0 .2.1.4.3.6.1.2.3.3.5.4.2.1.5.2.9.2.7 0 1.1-.1 1.4-.4.3-.3.4-.8.4-1.4V353h1.9v5.3c-.1 1.1-.4 2-1 2.5zm1.9-6.3v-1.6h7v1.6h-2.6v7h-1.9v-7h-2.5zm9.8-1.6v3.3h3.5v-3.3h1.9v8.5h-1.9v-3.7h-3.5v3.7h-1.9v-8.5h1.9zm14.4 0c.4 0 .8 0 1.1.1s.6.2.9.4c.2.2.4.4.6.7.1.3.2.6.2 1s-.1.8-.3 1.1-.5.5-.9.7c.5.2.9.4 1.2.8.3.4.4.8.4 1.4 0 .4-.1.8-.3 1.1-.2.3-.4.6-.7.8-.3.2-.6.3-1 .4-.4.1-.7.1-1.1.1h-4.1V353h4zm-.3 3.5c.3 0 .6-.1.8-.2.2-.2.3-.4.3-.8 0-.2 0-.4-.1-.5l-.3-.3s-.3-.1-.4-.1h-2.3v2h2zm.2 3.6c.2 0 .4 0 .5-.1.2 0 .3-.1.4-.2l.3-.3c.1-.1.1-.3.1-.6 0-.4-.1-.8-.4-.9s-.6-.3-1-.3h-2v2.3h2.1zm8.8-7.1l3.2 8.5h-2l-.6-1.9h-3.2l-.7 1.9h-1.9l3.2-8.5h2zm.1 5.3l-1.1-3.1-1.1 3.1h2.2zm5.2 1.2c.1.2.2.4.4.5l.6.3c.2.1.5.1.7.1h.5c.2 0 .4-.1.5-.2.2-.1.3-.2.4-.3.1-.1.2-.3.2-.5s-.1-.4-.2-.6c-.1-.1-.3-.3-.6-.4s-.5-.2-.8-.3c-.3-.1-.6-.2-.9-.2l-.9-.3c-.3-.1-.6-.3-.8-.4s-.4-.4-.6-.7c-.1-.3-.2-.6-.2-1s.1-.8.3-1.1c.2-.3.4-.6.7-.8.3-.2.6-.4 1-.5.4-.1.8-.2 1.1-.2.4 0 .9 0 1.3.1s.8.3 1.1.5c.3.2.6.5.8.9.2.3.3.8.3 1.3h-1.8c0-.3-.1-.5-.2-.6s-.2-.3-.4-.4c-.2-.1-.3-.2-.5-.2s-.4-.1-.6-.1h-.5c-.2 0-.3.1-.4.2l-.3.3c-.1.1-.1.3-.1.5s0 .3.1.4c.1.1.2.2.4.3.2.1.4.2.8.3.3.1.8.2 1.3.3.2 0 .4.1.7.2.3.1.6.2.8.4s.5.4.7.7c.2.3.3.7.3 1.2 0 .4-.1.8-.2 1.1-.2.3-.4.6-.7.9-.3.2-.7.4-1.1.6-.4.1-1 .2-1.5.2s-.9-.1-1.4-.2c-.4-.1-.8-.3-1.2-.5-.3-.2-.6-.6-.8-.9-.2-.4-.3-.8-.3-1.4h1.8c.1 0 .1.3.2.5zm7.8 0c.1.2.2.4.4.5l.6.3c.2.1.5.1.7.1h.5s.4-.1.5-.2c.2-.1.3-.2.4-.3.1-.1.2-.3.2-.5s-.1-.4-.2-.6-.3-.3-.6-.4-.5-.2-.8-.3c-.3-.1-.6-.2-.9-.2l-.9-.3c-.3-.1-.6-.3-.8-.4-.2-.2-.4-.4-.6-.7s-.2-.6-.2-1 .1-.8.3-1.1c.2-.3.4-.6.7-.8.3-.2.6-.4 1-.5.4-.1.8-.2 1.1-.2.4 0 .9 0 1.3.1s.8.3 1.1.5c.3.2.6.5.8.9.2.3.3.8.3 1.3H326c0-.3-.1-.5-.2-.6s-.2-.3-.4-.4c-.2-.1-.3-.2-.5-.2s-.4-.1-.6-.1h-.5c-.2 0-.3.1-.4.2l-.3.3c-.1.1-.1.3-.1.5s0 .3.1.4c.1.1.2.2.4.3.2.1.4.2.8.3.3.1.8.2 1.3.3.2 0 .4.1.7.2.3.1.6.2.8.4s.5.4.7.7c.2.3.3.7.3 1.2 0 .4-.1.8-.2 1.1-.2.3-.4.6-.7.9-.3.2-.7.4-1.1.6-.4.1-1 .2-1.5.2s-.9-.1-1.4-.2c-.4-.1-.8-.3-1.2-.5-.3-.2-.6-.6-.8-.9-.2-.4-.3-.8-.3-1.4h1.8s.1.3.2.5z"/>
    <path class="st0" d="M12.3 102.9h143.5v28.2H12.3z"/>
    <path class="st5" d="M104.8 107.1c.3-.9.8-1.7 1.4-2.3.6-.7 1.3-1.2 2.2-1.6.9-.4 1.8-.6 2.9-.6 1.1 0 2 .2 2.9.6.8.4 1.6.9 2.2 1.6.6.7 1 1.4 1.4 2.3.3.9.5 1.9.5 2.9s-.2 2-.5 2.8c-.3.9-.8 1.6-1.4 2.3-.6.7-1.3 1.2-2.2 1.5-.8.4-1.8.6-2.9.6-1.1 0-2-.2-2.9-.6-.9-.4-1.6-.9-2.2-1.5-.6-.7-1-1.4-1.4-2.3-.3-.9-.5-1.8-.5-2.8 0-1.1.2-2 .5-2.9zm2.8 4.6c.1.6.4 1.1.7 1.5.3.4.7.8 1.2 1.1.5.3 1.1.4 1.8.4s1.3-.1 1.8-.4c.5-.3.9-.6 1.2-1.1.3-.4.5-.9.7-1.5.1-.6.2-1.1.2-1.7 0-.6-.1-1.2-.2-1.8-.1-.6-.4-1.1-.7-1.5-.3-.5-.7-.8-1.2-1.1-.5-.3-1.1-.4-1.8-.4s-1.3.1-1.8.4c-.5.3-.9.6-1.2 1.1-.3.5-.5 1-.7 1.5-.1.6-.2 1.2-.2 1.8 0 .6 0 1.1.2 1.7zm11.5-6.2v-2.6h11.5v2.6h-4.2v11.4h-3.1v-11.4h-4.2zm11.9 0v-2.6h11.5v2.6h-4.2v11.4h-3.1v-11.4H131zm11.6-2.6h3.4l3.3 5.5 3.3-5.5h3.4l-5.2 8.6v5.4h-3.1v-5.4l-5.1-8.6zm-6.9 16v5.5h3.3v.7h-4.1v-6.2h.8zm6.6 0l2.4 6.2h-.9l-.7-1.9h-2.6l-.7 1.9h-.8l2.4-6.2h.9zm.6 3.6l-1-2.9-1.1 2.9h2.1zm3.3-3.6v3.1l3.2-3.1h1.1l-2.6 2.5 2.7 3.7h-1l-2.2-3.1-1 1v2.2h-.8V119h.6zm9.2 0v.7H152v2h3.2v.7H152v2.1h3.5v.7h-4.3v-6.2h4.2z"/>
    <path class="st0" d="M29.9 137.1h125.8V170H29.9z"/>
    <path class="st5" d="M135.7 137.1v5.5h3.3v.7h-4.1v-6.2h.8zm6.6 0l2.4 6.2h-.9l-.7-1.9h-2.6l-.7 1.9h-.8l2.4-6.2h.9zm.6 3.6l-1-2.9-1.1 2.9h2.1zm3.3-3.6v3.1l3.2-3.1h1.1l-2.6 2.5 2.7 3.7h-1l-2.2-3.1-1 1v2.2h-.8v-6.2h.6zm9.2 0v.7H152v2h3.2v.7H152v2.1h3.5v.7h-4.3v-6.2h4.2zm-33.1 9.1v2.6h-7.4v3h6.8v2.4h-6.8v3.4h7.5v2.6h-10.6v-14h10.5zm9.8 0c.6 0 1.2.1 1.7.3.5.2.9.5 1.3.8.4.4.6.8.8 1.2.2.5.3 1 .3 1.5 0 .8-.2 1.5-.5 2.1-.3.6-.9 1.1-1.7 1.4.4.1.7.3.9.5.2.2.5.5.6.8.2.3.3.6.3 1 .1.4.1.7.1 1.1v.8c0 .3 0 .6.1.9s.1.6.2.9c.1.3.2.5.3.7h-3.1c-.2-.4-.3-1-.3-1.6 0-.6-.1-1.2-.2-1.8-.1-.7-.3-1.3-.7-1.6-.3-.3-.9-.5-1.7-.5h-3.1v5.5h-3.1v-14h7.8zm-1.1 6.3c.7 0 1.2-.2 1.6-.5.4-.3.5-.8.5-1.5s-.2-1.2-.5-1.5-.9-.5-1.6-.5h-3.4v3.9h3.4zm10.7-6.3v14h-3.1v-14h3.1zm13.2 0v2.6h-7.4v3h6.8v2.4h-6.8v3.4h7.5v2.6h-10.6v-14h10.5z"/>
    <path class="st0" d="M12.3 171.2h143.5v28.2H12.3z"/>
    <path class="st5" d="M88.3 171.2v2.6h-6.8v3.2h5.9v2.4h-5.9v5.8h-3.1v-14h9.9zm9.3 0c.6 0 1.2.1 1.7.3.5.2.9.5 1.3.8.4.4.6.8.8 1.2.2.5.3 1 .3 1.5 0 .8-.2 1.5-.5 2.1-.3.6-.9 1.1-1.7 1.4.4.1.7.3.9.5.2.2.5.5.6.8.2.3.3.6.3 1 .1.4.1.7.1 1.1v.8c0 .3 0 .6.1.9 0 .3.1.6.2.9.1.3.2.5.3.7h-3c-.2-.4-.3-1-.3-1.6 0-.6-.1-1.2-.2-1.8-.1-.7-.3-1.3-.7-1.6-.3-.3-.9-.5-1.7-.5H93v5.5h-3v-14h7.6zm-1.1 6.3c.7 0 1.2-.2 1.6-.5.4-.3.5-.8.5-1.5s-.2-1.2-.5-1.5-.9-.5-1.6-.5h-3.4v3.9h3.4zm14.7-6.3l5.2 14h-3.2l-1.1-3.1h-5.2l-1.1 3.1h-3.1l5.3-14h3.2zm.1 8.6l-1.8-5.1-1.8 5.1h3.6zm8.7 1.9c.2.3.4.6.7.8.3.2.6.4 1 .5.4.1.8.1 1.2.1.3 0 .6 0 .9-.1.3 0 .6-.1.9-.3.3-.1.5-.3.7-.5.2-.2.3-.5.3-.9s-.1-.7-.4-.9l-.9-.6s-.8-.3-1.3-.4c-.5-.1-1-.2-1.5-.4-.5-.1-1-.3-1.5-.5s-.9-.4-1.3-.7-.7-.7-1-1.1c-.2-.5-.4-1-.4-1.6 0-.7.2-1.3.5-1.9.3-.5.7-1 1.2-1.3s1.1-.6 1.7-.8c.6-.2 1.3-.3 1.9-.3.7 0 1.4.1 2.1.2.7.2 1.3.4 1.8.8s.9.8 1.2 1.4.5 1.3.5 2.1h-3c0-.4-.1-.8-.3-1-.2-.3-.3-.5-.6-.6-.2-.2-.5-.3-.9-.3s-.7-.1-1-.1c-.2 0-.5 0-.7.1s-.5.1-.7.3c-.2.1-.4.3-.5.5s-.2.4-.2.7c0 .3.1.5.2.7.1.2.3.3.6.5.3.1.7.3 1.3.4s1.2.3 2.1.5c.3.1.6.1 1.1.3.5.1.9.4 1.4.7s.9.7 1.2 1.2.5 1.1.5 1.9c0 .6-.1 1.2-.4 1.8s-.6 1-1.1 1.4c-.5.4-1.1.7-1.8.9s-1.6.3-2.5.3c-.8 0-1.5-.1-2.2-.3s-1.4-.5-1.9-.9c-.6-.4-1-.9-1.3-1.5-.3-.6-.5-1.4-.5-2.2h3c-.4.4-.3.8-.1 1.1zm20.8-10.5v2.6h-7.4v3h6.8v2.4h-6.8v3.4h7.5v2.6h-10.6v-14h10.5zm9.7 0c.6 0 1.2.1 1.7.3.5.2.9.5 1.3.8.4.4.6.8.8 1.2.2.5.3 1 .3 1.5 0 .8-.2 1.5-.5 2.1-.3.6-.9 1.1-1.7 1.4.4.1.7.3.9.5.2.2.5.5.6.8.2.3.3.6.3 1 .1.4.1.7.1 1.1v.8c0 .3 0 .6.1.9 0 .3.1.6.2.9.1.3.2.5.3.7H152c-.2-.4-.3-1-.3-1.6 0-.6-.1-1.2-.2-1.8-.1-.7-.3-1.3-.7-1.6-.3-.3-.9-.5-1.7-.5H146v5.5h-3v-14h7.5zm-1.1 6.3c.7 0 1.2-.2 1.6-.5.4-.3.5-.8.5-1.5s-.2-1.2-.5-1.5-.9-.5-1.6-.5H146v3.9h3.4zm-14.8 9.6c.6 0 1.1.1 1.4.4s.5.7.5 1.2c0 .4-.1.7-.3 1-.2.3-.4.5-.8.6.2 0 .3.1.4.2l.3.3c.1.1.1.2.1.4 0 .1.1.3.1.4v1c0 .2.1.3.1.4 0 .1.1.3.2.4h-.9c-.1-.1-.1-.2-.1-.3v-.8c0-.2 0-.3-.1-.5 0-.2-.1-.3-.1-.4 0-.1-.1-.3-.2-.4-.1-.1-.2-.2-.3-.2-.1-.1-.3-.1-.5-.1h-2v2.7h-.8v-6.2h3zm.2 2.8c.2 0 .3-.1.5-.2l.3-.3c.1-.1.1-.3.1-.6s-.1-.6-.3-.8c-.2-.2-.5-.3-.8-.3h-2.1v2.2h1.7c.2.1.4.1.6 0zm3.7-2.8v6.2h-.8v-6.2h.8zm2.9 6.2l-2.2-6.2h.9l1.8 5.4 1.8-5.4h.9l-2.2 6.2h-1zm8.1-6.2v.7H146v2h3.2v.7H146v2.1h3.5v.7h-4.3v-6.2h4.3zm3.9 0c.6 0 1.1.1 1.4.4.3.3.5.7.5 1.2 0 .4-.1.7-.3 1s-.4.5-.8.6c.2 0 .3.1.4.2l.3.3c.1.1.1.2.1.4s.1.3.1.4v1s.1.3.1.4c0 .1.1.3.2.4h-.9c-.1-.1-.1-.2-.1-.3v-.8c0-.2 0-.3-.1-.5 0-.2-.1-.3-.1-.4 0-.1-.1-.3-.2-.4-.1-.1-.2-.2-.3-.2-.1-.1-.3-.1-.5-.1h-2v2.7h-.8v-6.2h3zm.2 2.8c.2 0 .3-.1.5-.2l.3-.3c.1-.1.1-.3.1-.6s-.1-.6-.3-.8-.5-.3-.8-.3h-2.1v2.2h1.7c.2.1.4.1.6 0z"/>
    <path class="st0" d="M12.3 239.4h143.5v28.2H12.3z"/>
    <path class="st5" d="M38.1 243.1c-.2-.3-.4-.6-.7-.8-.3-.2-.6-.4-.9-.5-.3-.1-.7-.2-1.1-.2-.7 0-1.3.1-1.8.4-.5.3-.9.6-1.2 1.1-.3.5-.5 1-.7 1.5-.1.6-.2 1.2-.2 1.8 0 .6.1 1.2.2 1.7.1.6.4 1.1.7 1.5.3.4.7.8 1.2 1.1.5.3 1.1.4 1.8.4.9 0 1.7-.3 2.2-.9.5-.6.9-1.3 1-2.3h3c-.1.9-.3 1.7-.6 2.4s-.8 1.3-1.3 1.8-1.2.9-1.9 1.1c-.7.3-1.5.4-2.4.4-1.1 0-2-.2-2.9-.6-.9-.4-1.6-.9-2.2-1.5-.6-.7-1-1.4-1.4-2.3-.3-.9-.5-1.8-.5-2.8 0-1 .2-2 .5-2.9.3-.9.8-1.7 1.4-2.3.6-.7 1.3-1.2 2.2-1.6.9-.4 1.8-.6 2.9-.6.8 0 1.5.1 2.2.3.7.2 1.3.5 1.8 1 .5.4 1 1 1.3 1.6.4.6.6 1.3.7 2.2h-3c0-.4-.1-.7-.3-1zm12.5-3.7l5.2 14h-3.2l-1.1-3.1h-5.2l-1.1 3.1h-3.1l5.3-14h3.2zm.2 8.5l-1.8-5.1-1.8 5.1h3.6zm8.6 2c.2.3.4.6.7.8.3.2.6.4 1 .5.4.1.8.1 1.2.1.3 0 .6 0 .9-.1.3 0 .6-.1.9-.3.3-.1.5-.3.7-.5.2-.2.3-.5.3-.9s-.1-.7-.4-.9l-.9-.6c-.4-.2-.8-.3-1.3-.4-.5-.1-1-.2-1.5-.4-.5-.1-1-.3-1.5-.5s-.9-.4-1.3-.7-.7-.7-1-1.1c-.2-.5-.4-1-.4-1.6 0-.7.2-1.3.5-1.9.3-.5.7-1 1.2-1.3s1.1-.6 1.7-.8c.6-.2 1.3-.3 1.9-.3.7 0 1.4.1 2.1.2.7.2 1.3.4 1.8.8s.9.8 1.2 1.4.5 1.3.5 2.1h-3c0-.4-.1-.8-.3-1-.2-.3-.3-.5-.6-.6-.2-.2-.5-.3-.9-.3s-.7-.1-1-.1c-.2 0-.5 0-.7.1s-.5.1-.7.3c-.2.1-.4.3-.5.5s-.2.4-.2.7c0 .3.1.5.2.7.1.2.3.3.6.5.3.1.7.3 1.3.4s1.2.3 2.1.5c.3.1.6.1 1.1.3.5.1.9.4 1.4.7s.9.7 1.2 1.2.5 1.1.5 1.9c0 .6-.1 1.2-.4 1.8s-.6 1-1.1 1.4c-.5.4-1.1.7-1.8.9-.7.2-1.6.3-2.5.3-.8 0-1.5-.1-2.2-.3s-1.4-.5-1.9-.9c-.6-.4-1-.9-1.3-1.5-.3-.6-.5-1.4-.5-2.2h3c-.4.4-.3.8-.1 1.1zm19.3-6.8c-.2-.3-.4-.6-.7-.8-.3-.2-.6-.4-.9-.5s-.7-.2-1.1-.2c-.7 0-1.3.1-1.8.4-.5.3-.9.6-1.2 1.1-.3.5-.5 1-.7 1.5-.1.6-.2 1.2-.2 1.8 0 .6.1 1.2.2 1.7.1.6.4 1.1.7 1.5s.7.8 1.2 1.1c.5.3 1.1.4 1.8.4.9 0 1.7-.3 2.2-.9.5-.6.9-1.3 1-2.3h3c-.1.9-.3 1.7-.6 2.4s-.8 1.3-1.3 1.8-1.2.9-1.9 1.1c-.7.3-1.5.4-2.4.4-1.1 0-2-.2-2.9-.6s-1.6-.9-2.2-1.5c-.6-.7-1-1.4-1.4-2.3-.3-.9-.5-1.8-.5-2.8 0-1 .2-2 .5-2.9.3-.9.8-1.7 1.4-2.3.6-.7 1.3-1.2 2.2-1.6.9-.4 1.9-.6 2.9-.6.8 0 1.5.1 2.2.3.7.2 1.3.5 1.8 1 .5.4 1 1 1.3 1.6.4.6.6 1.3.7 2.2h-3c0-.4-.1-.7-.3-1zm12.5-3.7l5.2 14h-3.2l-1.1-3.1H87l-1.1 3.1h-3.1l5.3-14h3.1zm.2 8.5l-1.8-5.1-1.8 5.1h3.6zm12.6-8.5c.9 0 1.6.1 2.2.4.6.3 1.1.6 1.5 1 .4.4.7.9.8 1.4.2.5.3 1.1.3 1.7 0 .6-.1 1.1-.3 1.7-.2.5-.5 1-.8 1.4-.4.4-.9.8-1.5 1-.6.3-1.4.4-2.2.4h-3.2v5h-3.1v-14h6.3zm-.8 6.5c.4 0 .7 0 1-.1l.9-.3c.2-.1.4-.4.6-.6.1-.3.2-.6.2-1.1s-.1-.8-.2-1.1c-.2-.3-.3-.5-.6-.6-.2-.1-.5-.3-.9-.3-.3-.1-.7-.1-1-.1h-2.4v4.2h2.4zm18-6.5v2.6h-7.4v3h6.8v2.4h-6.8v3.4h7.5v2.6h-10.6v-14h10.5zm8.3 0c.9 0 1.7.1 2.5.4.8.3 1.4.7 2 1.3.6.6 1 1.3 1.3 2.2.3.9.5 1.9.5 3 0 1-.1 2-.4 2.8-.3.9-.7 1.6-1.2 2.2-.5.6-1.2 1.1-2 1.5-.8.4-1.7.5-2.8.5h-6v-14h6.1zm-.2 11.4c.4 0 .9-.1 1.3-.2s.8-.4 1.1-.7.6-.8.8-1.3c.2-.5.3-1.2.3-2 0-.7-.1-1.3-.2-1.9-.1-.6-.4-1.1-.7-1.5-.3-.4-.7-.7-1.2-.9s-1.2-.3-1.9-.3h-2.2v8.8h2.7zm11.7-11.4v14h-3.1v-14h3.1zm9.7 0l5.2 14h-3.2l-1.1-3.1h-5.2l-1.1 3.1h-3.1l5.3-14h3.2zm.2 8.5l-1.8-5.1-1.8 5.1h3.6zm-16.3 7.4c.6 0 1.1.1 1.4.4.3.3.5.7.5 1.2 0 .4-.1.7-.3 1-.2.3-.4.5-.8.6.2 0 .3.1.4.2l.3.3c.1.1.1.2.1.4 0 .1.1.3.1.4v1c0 .2.1.3.1.4 0 .1.1.3.2.4h-.9c-.1-.1-.1-.2-.1-.3v-.8c0-.2 0-.3-.1-.5 0-.2-.1-.3-.1-.4 0-.1-.1-.3-.2-.4-.1-.1-.2-.2-.3-.2-.1-.1-.3-.1-.5-.1h-2v2.7h-.8v-6.2h3zm.2 2.8c.2 0 .3-.1.5-.2l.3-.3c.1-.1.1-.3.1-.6s-.1-.6-.3-.8c-.2-.2-.5-.3-.8-.3h-2.1v2.2h1.7c.2.1.4 0 .6 0zm3.7-2.8v6.2h-.8v-6.2h.8zm2.9 6.2l-2.2-6.2h.9l1.8 5.4 1.8-5.4h.9l-2.2 6.2h-1zm8.1-6.2v.7H146v2h3.2v.7H146v2.1h3.5v.7h-4.3v-6.2h4.3zm3.9 0c.6 0 1.1.1 1.4.4.3.3.5.7.5 1.2 0 .4-.1.7-.3 1s-.4.5-.8.6c.2 0 .3.1.4.2l.3.3c.1.1.1.2.1.4s.1.3.1.4v1s.1.3.1.4c0 .1.1.3.2.4h-.9c-.1-.1-.1-.2-.1-.3v-.8c0-.2 0-.3-.1-.5 0-.2-.1-.3-.1-.4 0-.1-.1-.3-.2-.4-.1-.1-.2-.2-.3-.2-.1-.1-.3-.1-.5-.1h-2v2.7h-.8v-6.2h3zm.2 2.8c.2 0 .3-.1.5-.2l.3-.3c.1-.1.1-.3.1-.6s-.1-.6-.3-.8-.5-.3-.8-.3h-2.1v2.2h1.7c.2.1.4 0 .6 0z"/>
    <path class="st0" d="M12.3 205.5h143.5v28.2H12.3z"/>
    <path class="st5" d="M90.2 205.5l5.8 9.4v-9.4h2.9v14h-3.1l-5.8-9.4v9.4h-2.9v-14h3.1zm11.3 4.2c.3-.9.8-1.7 1.4-2.3.6-.7 1.3-1.2 2.2-1.6.9-.4 1.8-.6 2.9-.6 1.1 0 2 .2 2.9.6.8.4 1.6.9 2.2 1.6.6.7 1 1.4 1.4 2.3.3.9.5 1.9.5 2.9s-.2 2-.5 2.8c-.3.9-.8 1.6-1.4 2.3-.6.7-1.3 1.2-2.2 1.5-.8.4-1.8.6-2.9.6-1.1 0-2-.2-2.9-.6-.9-.4-1.6-.9-2.2-1.5-.6-.7-1-1.4-1.4-2.3-.3-.9-.5-1.8-.5-2.8 0-1 .2-2 .5-2.9zm2.8 4.6c.1.6.4 1.1.7 1.5.3.4.7.8 1.2 1.1.5.3 1.1.4 1.8.4s1.3-.1 1.8-.4c.5-.3.9-.6 1.2-1.1.3-.4.5-.9.7-1.5.1-.6.2-1.1.2-1.7 0-.6-.1-1.2-.2-1.8-.1-.6-.4-1.1-.7-1.5-.3-.5-.7-.8-1.2-1.1-.5-.3-1.1-.4-1.8-.4s-1.3.1-1.8.4c-.5.3-.9.6-1.2 1.1-.3.5-.5 1-.7 1.5-.1.6-.2 1.2-.2 1.8 0 .6.1 1.2.2 1.7zm20.1-8.8c.6 0 1.2.1 1.7.3.5.2.9.5 1.3.8.4.4.6.8.8 1.2.2.5.3 1 .3 1.5 0 .8-.2 1.5-.5 2.1-.3.6-.9 1.1-1.7 1.4.4.1.7.3.9.5.2.2.5.5.6.8.2.3.3.6.3 1 .1.4.1.7.1 1.1v.8c0 .3 0 .6.1.9s.1.6.2.9c.1.3.2.5.3.7h-3.1c-.2-.4-.3-1-.3-1.6 0-.6-.1-1.2-.2-1.8-.1-.7-.3-1.3-.7-1.6-.3-.3-.9-.5-1.7-.5H120v5.5h-3.1v-14h7.5zm-1.1 6.4c.7 0 1.2-.2 1.6-.5.4-.3.5-.8.5-1.5s-.2-1.2-.5-1.5-.9-.5-1.6-.5H120v3.9h3.3zm6.3-3.8v-2.6H141v2.6h-4.2v11.4h-3.1v-11.4h-4.1zm16.1-2.6v5.4h5.7v-5.4h3.1v14h-3.1v-6h-5.7v6h-3.1v-14h3.1zm-10 16v5.5h3.3v.7h-4.1v-6.2h.8zm6.6 0l2.4 6.2h-.9l-.7-1.9h-2.6l-.7 1.9h-.8l2.4-6.2h.9zm.6 3.6l-1-2.9-1.1 2.9h2.1zm3.3-3.6v3.1l3.2-3.1h1.1l-2.6 2.5 2.7 3.7h-1l-2.2-3.1-1 1v2.2h-.8v-6.2h.6zm9.2 0v.7H152v2h3.2v.7H152v2.1h3.5v.7h-4.3v-6.2h4.2z"/>
    <path class="st0" d="M27.5 274.5h128.3v32.9H27.5z"/>
    <path class="st5" d="M135.7 274.5v5.5h3.3v.7h-4.1v-6.2h.8zm6.6 0l2.4 6.2h-.9l-.7-1.9h-2.6l-.7 1.9h-.8l2.4-6.2h.9zm.6 3.7l-1-2.9-1.1 2.9h2.1zm3.3-3.7v3.1l3.2-3.1h1.1l-2.6 2.5 2.7 3.7h-1l-2.2-3.1-1 1v2.2h-.8v-6.2h.6zm9.2 0v.7H152v2h3.2v.7H152v2.1h3.5v.7h-4.3v-6.2h4.2zm-87.7 23.1l-2.4-9.5-2.3 9.5h-3.1l-3.7-14h3.1l2.2 9.5 2.4-9.5h2.9l2.4 9.6 2.3-9.6h3l-3.8 14h-3zm11.3-14v14h-3.1v-14H79zm5.8 0l5.8 9.4v-9.4h2.9v14h-3.1l-5.8-9.4v9.4h-2.9v-14h3.1zm14.5 0l5.8 9.4v-9.4h2.9v14h-3l-5.8-9.4v9.4h-2.9v-14h3zm14.5 0v14h-3.1v-14h3.1zm9 0c.9 0 1.6.1 2.2.4.6.3 1.1.6 1.5 1 .4.4.7.9.8 1.4.2.5.3 1.1.3 1.7 0 .6-.1 1.1-.3 1.7-.2.5-.5 1-.8 1.4-.4.4-.9.8-1.5 1-.6.3-1.4.4-2.2.4h-3.2v5h-3.1v-14h6.3zm-.8 6.6c.4 0 .7 0 1-.1l.9-.3c.2-.1.4-.4.6-.6.1-.3.2-.6.2-1.1s-.1-.8-.2-1.1c-.2-.3-.3-.5-.6-.6-.2-.1-.5-.3-.9-.3-.3-.1-.7-.1-1-.1h-2.4v4.2h2.4zm18-6.6v2.6h-7.4v3h6.8v2.4h-6.8v3.4h7.5v2.6h-10.6v-14H140zm10.6 13.9c-.7.3-1.3.4-2 .4-1.1 0-2-.2-2.9-.6-.9-.4-1.6-.9-2.2-1.5-.6-.7-1-1.4-1.4-2.3-.3-.9-.5-1.8-.5-2.8 0-1 .2-2 .5-2.9.3-.9.8-1.7 1.4-2.3.6-.7 1.3-1.2 2.2-1.6.9-.4 1.8-.6 2.9-.6.7 0 1.4.1 2.1.3.7.2 1.3.5 1.8.9s1 .9 1.3 1.5.6 1.3.6 2.1h-2.9c-.2-.8-.5-1.4-1.1-1.8-.5-.4-1.2-.6-1.9-.6s-1.3.1-1.8.4c-.5.3-.9.6-1.2 1.1-.3.5-.5 1-.7 1.5-.1.6-.2 1.2-.2 1.8 0 .6.1 1.2.2 1.7.1.6.4 1.1.7 1.5.3.4.7.8 1.2 1.1.5.3 1.1.4 1.8.4 1 0 1.8-.3 2.4-.8.6-.5.9-1.3 1-2.2h-3.1V290h5.9v7.6h-2l-.3-1.6c-.6.7-1.2 1.2-1.8 1.5z"/>
    <path class="st0" d="M-7 309.7h162.8v28.2H-7z"/>
    <path class="st5" d="M135.7 309.7v5.5h3.3v.7h-4.1v-6.2h.8zm6.6 0l2.4 6.2h-.9l-.7-1.9h-2.6l-.7 1.9h-.8l2.4-6.2h.9zm.6 3.7l-1-2.9-1.1 2.9h2.1zm3.3-3.7v3.1l3.2-3.1h1.1l-2.6 2.5 2.7 3.7h-1l-2.2-3.1-1 1v2.2h-.8v-6.2h.6zm9.2 0v.7H152v2h3.2v.7H152v2.1h3.5v.7h-4.3v-6.2h4.2zM15.7 332.8l-2.4-9.5-2.3 9.5H7.9l-3.7-14h3.1l2.2 9.5 2.4-9.5h2.9l2.4 9.6 2.3-9.6h3l-3.8 14h-3zm14.7-14l5.2 14h-3.2l-1.1-3.1h-5.2l-1.1 3.1h-3l5.3-14h3.1zm.2 8.6l-1.8-5.1-1.8 5.1h3.6zm8.6 1.9c.2.3.4.6.7.8.3.2.6.4 1 .5.4.1.8.1 1.2.1.3 0 .6 0 .9-.1.3 0 .6-.1.9-.3s.5-.3.7-.5.3-.5.3-.9-.1-.7-.4-.9c-.2-.2-.6-.4-1-.6s-.8-.3-1.3-.4c-.5-.1-1-.2-1.5-.4-.5-.1-1-.3-1.5-.5s-.9-.4-1.3-.7c-.4-.3-.7-.7-.9-1.1-.2-.5-.4-1-.4-1.6 0-.7.2-1.3.5-1.9s.7-1 1.2-1.3 1.1-.6 1.7-.8c.6-.2 1.3-.3 1.9-.3.7 0 1.4.1 2.1.2.7.2 1.3.4 1.8.8s.9.8 1.2 1.4.5 1.3.5 2.1h-3c0-.4-.1-.8-.3-1-.2-.3-.3-.5-.6-.6s-.5-.3-.9-.3c-.3-.1-.7-.1-1-.1-.2 0-.5 0-.7.1s-.5.1-.7.3c-.2.1-.4.3-.5.5-.1.2-.2.4-.2.7 0 .3.1.5.2.7.1.2.3.3.6.5.3.1.7.3 1.3.4.5.1 1.2.3 2.1.5.3.1.6.1 1.1.3.5.1.9.4 1.4.7s.9.7 1.2 1.2c.3.5.5 1.1.5 1.9 0 .6-.1 1.2-.4 1.8s-.6 1-1.1 1.4c-.5.4-1.1.7-1.8.9s-1.6.3-2.5.3c-.8 0-1.5-.1-2.2-.3s-1.4-.5-1.9-.9c-.6-.4-1-.9-1.3-1.5-.3-.6-.5-1.4-.5-2.2h3c-.3.4-.2.8-.1 1.1zm13.5-10.5v5.8l5.5-5.8H62l-5.5 5.5 6 8.5h-3.9l-4.2-6.3-1.8 1.8v4.5h-3.1v-14h3.2z"/>
    <path class="st5" d="M70.7 318.8l5.2 14h-3.2l-1.1-3.1h-5.2l-1.1 3.1h-3.1l5.3-14h3.2zm.2 8.6l-1.8-5.1-1.8 5.1h3.6zm9.3-8.6v14h-3.1v-14h3.1zm2.6 4.2c.3-.9.8-1.7 1.4-2.3.6-.7 1.3-1.2 2.2-1.6.9-.4 1.8-.6 2.9-.6 1.1 0 2 .2 2.9.6.8.4 1.6.9 2.2 1.6s1 1.4 1.4 2.3c.3.9.5 1.9.5 2.9s-.2 2-.5 2.8c-.3.9-.8 1.6-1.4 2.3-.6.7-1.3 1.2-2.2 1.5s-1.8.6-2.9.6c-1.1 0-2-.2-2.9-.6s-1.6-.9-2.2-1.5c-.6-.7-1-1.4-1.4-2.3-.3-.9-.5-1.8-.5-2.8 0-1.1.2-2.1.5-2.9zm2.8 4.6c.1.6.4 1.1.7 1.5s.7.8 1.2 1.1c.5.3 1.1.4 1.8.4s1.3-.1 1.8-.4c.5-.3.9-.6 1.2-1.1.3-.4.5-.9.7-1.5.1-.6.2-1.1.2-1.7 0-.6-.1-1.2-.2-1.8-.1-.6-.4-1.1-.7-1.5-.3-.5-.7-.8-1.2-1.1-.5-.3-1.1-.4-1.8-.4s-1.3.1-1.8.4c-.5.3-.9.6-1.2 1.1-.3.5-.5 1-.7 1.5-.1.6-.2 1.2-.2 1.8 0 .5.1 1.1.2 1.7zm22.8 5.2l-2.4-9.5-2.3 9.5h-3.1l-3.7-14h3.1l2.2 9.5 2.4-9.5h2.9l2.4 9.6 2.3-9.6h3l-3.8 14h-3zm14.7-14l5.2 14h-3.2l-1.1-3.1h-5.2l-1.1 3.1h-3.1l5.3-14h3.2zm.2 8.6l-1.8-5.1-1.8 5.1h3.6zm9.4-8.6v5.8l5.5-5.8h3.8l-5.5 5.5 6 8.5h-3.9l-4.2-6.3-1.8 1.8v4.5h-3.1v-14h3.2z"/>
    <path class="st5" d="M150.7 318.8l5.2 14h-3.2l-1.1-3.1h-5.2l-1.1 3.1h-3.1l5.3-14h3.2zm.2 8.6l-1.8-5.1-1.8 5.1h3.6z"/>
    <path class="st0" d="M46.6 343.8h109.2v32.9H46.6z"/>
    <path class="st5" d="M135.7 343.8v5.5h3.3v.7h-4.1v-6.2h.8zm6.6 0l2.4 6.2h-.9l-.7-1.9h-2.6l-.7 1.9h-.8l2.4-6.2h.9zm.6 3.6l-1-2.9-1.1 2.9h2.1zm3.3-3.6v3.1l3.2-3.1h1.1l-2.6 2.5 2.7 3.7h-1l-2.2-3.1-1 1v2.2h-.8v-6.2h.6zm9.2 0v.7H152v2h3.2v.7H152v2.1h3.5v.7h-4.3v-6.2h4.2zm-94.9 9.1l5.8 9.4v-9.4h2.9v14h-3.1l-5.8-9.4v9.4h-2.9v-14h3.1zm14.5 0v14h-3v-14h3zm9 0c.9 0 1.6.1 2.2.4.6.3 1.1.6 1.5 1s.7.9.8 1.4c.2.5.3 1.1.3 1.7 0 .6-.1 1.1-.3 1.7-.2.5-.5 1-.8 1.4s-.9.8-1.5 1c-.6.3-1.4.4-2.2.4h-3.2v5h-3.1v-14H84zm-.8 6.6c.4 0 .7 0 1-.1l.9-.3c.2-.1.4-.4.6-.6.2-.3.2-.6.2-1.1s-.1-.8-.2-1.1c-.2-.3-.3-.5-.6-.6-.2-.1-.5-.3-.9-.3s-.7-.1-1-.1h-2.4v4.2h2.4zm10.7-6.6v14h-3.1v-14h3.1zm5 10.5c.2.3.4.6.7.8.3.2.6.4 1 .5.4.1.8.1 1.2.1.3 0 .6 0 .9-.1.3 0 .6-.1.9-.3s.5-.3.7-.5.3-.5.3-.9-.1-.7-.4-.9c-.2-.2-.6-.4-1-.6s-.8-.3-1.3-.4c-.5-.1-1-.2-1.5-.4-.5-.1-1-.3-1.5-.5s-.9-.4-1.3-.7c-.4-.3-.7-.7-.9-1.1-.2-.5-.4-1-.4-1.6 0-.7.2-1.3.5-1.9s.7-1 1.2-1.3 1.1-.6 1.7-.8c.6-.2 1.3-.3 1.9-.3.7 0 1.4.1 2.1.2.7.2 1.3.4 1.8.8s.9.8 1.2 1.4.5 1.3.5 2.1h-3c0-.4-.1-.8-.3-1-.2-.3-.3-.5-.6-.6s-.5-.3-.9-.3c-.3-.1-.7-.1-1-.1-.2 0-.5 0-.7.1s-.5.1-.7.3c-.2.1-.4.3-.5.5-.1.2-.2.4-.2.7 0 .3.1.5.2.7.1.2.3.3.6.5.3.1.7.3 1.3.4.5.1 1.2.3 2.1.5.3.1.6.1 1.1.3.5.1.9.4 1.4.7s.9.7 1.2 1.2c.3.5.5 1.1.5 1.9 0 .6-.1 1.2-.4 1.8s-.6 1-1.1 1.4c-.5.4-1.1.7-1.8.9s-1.6.3-2.5.3c-.8 0-1.5-.1-2.2-.3s-1.4-.5-1.9-.9c-.6-.4-1-.9-1.3-1.5-.3-.6-.5-1.4-.5-2.2h3c-.3.4-.2.8-.1 1.1zm12.7 0c.2.3.4.6.7.8.3.2.6.4 1 .5.4.1.8.1 1.2.1.3 0 .6 0 .9-.1.3 0 .6-.1.9-.3.3-.1.5-.3.7-.5.2-.2.3-.5.3-.9s-.1-.7-.4-.9l-.9-.6s-.8-.3-1.3-.4c-.5-.1-1-.2-1.5-.4-.5-.1-1-.3-1.5-.5s-.9-.4-1.3-.7-.7-.7-1-1.1c-.2-.5-.4-1-.4-1.6 0-.7.2-1.3.5-1.9.3-.5.7-1 1.2-1.3s1.1-.6 1.7-.8c.6-.2 1.3-.3 1.9-.3.7 0 1.4.1 2.1.2.7.2 1.3.4 1.8.8s.9.8 1.2 1.4.5 1.3.5 2.1h-3c0-.4-.1-.8-.3-1-.2-.3-.3-.5-.6-.6-.2-.2-.5-.3-.9-.3s-.7-.1-1-.1c-.2 0-.5 0-.7.1s-.5.1-.7.3c-.2.1-.4.3-.5.5s-.2.4-.2.7c0 .3.1.5.2.7.1.2.3.3.6.5.3.1.7.3 1.3.4s1.2.3 2.1.5c.3.1.6.1 1.1.3.5.1.9.4 1.4.7s.9.7 1.2 1.2.5 1.1.5 1.9c0 .6-.1 1.2-.4 1.8s-.6 1-1.1 1.4c-.5.4-1.1.7-1.8.9s-1.6.3-2.5.3c-.8 0-1.5-.1-2.2-.3s-1.4-.5-1.9-.9c-.6-.4-1-.9-1.3-1.5-.3-.6-.5-1.4-.5-2.2h3c-.3.4-.2.8-.1 1.1zm13.5-10.5v14H122v-14h3.1zm5.7 0l5.8 9.4v-9.4h2.9v14h-3.1l-5.8-9.4v9.4h-2.9v-14h3.1zm19.8 13.9c-.7.3-1.3.4-2 .4-1.1 0-2-.2-2.9-.6s-1.6-.9-2.2-1.5c-.6-.7-1-1.4-1.4-2.3-.3-.9-.5-1.8-.5-2.8 0-1 .2-2 .5-2.9.3-.9.8-1.7 1.4-2.3.6-.7 1.3-1.2 2.2-1.6.9-.4 1.8-.6 2.9-.6.7 0 1.4.1 2.1.3.7.2 1.3.5 1.8.9s1 .9 1.3 1.5.6 1.3.6 2.1h-2.9c-.2-.8-.5-1.4-1.1-1.8-.5-.4-1.2-.6-1.9-.6s-1.3.1-1.8.4c-.5.3-.9.6-1.2 1.1-.3.5-.5 1-.7 1.5-.1.6-.2 1.2-.2 1.8 0 .6.1 1.2.2 1.7.1.6.4 1.1.7 1.5s.7.8 1.2 1.1c.5.3 1.1.4 1.8.4 1 0 1.8-.3 2.4-.8.6-.5.9-1.3 1-2.2h-3.1v-2.3h5.9v7.6h-2l-.3-1.6c-.6.8-1.2 1.3-1.8 1.6z"/>
  </g>
</svg>
