<svg xmlns="http://www.w3.org/2000/svg" width="454.7" height="91.8" viewBox="0 0 454.7 91.8">
  <text transform="translate(121.524 56.54)">
    <tspan x="0" y="0" fill="#D9EAF8" font-family="'HelveticaNeue-CondensedBlack'" font-size="28.288">WALLEYE</tspan><tspan x="-112.9" y="14.1" fill="#2D4171" font-family="'HelveticaNeue-Bold'" font-size="11.968">The most prodominant species caught</tspan>
  </text>
  <path fill="#7698CF" d="M388.4 35.2c1.4-4.9 3.3-17.5 1.1-16.4s-5.2-7.7-6.8-6.7c-1.6 1-8.7-4.7-9-2.8-.3 1.9-9.8-1.1-11.5 1.6s-8.7 2.2-9 4.6c-.3 2.5-5.6 1.6-6.5 4.1-.9 2.5-5.5 2.7-6.1 4.9s-3.5 6-2.7 9c.8 3.1 50.5 1.7 50.5 1.7zm-89.8 6.6c-7.9-6-12-7.1-1.4-14.2s22.1-19.9 28.1-13.9c6 6 12.5 19.9 12.5 19.9l-39.2 8.2zm34.1 16.1c-2.2 5.2-12 22.9-19.9 17.2s-18.8-19.9-6-22.4 25.9 5.2 25.9 5.2z"/>
  <path fill="#4F70B6" d="M380.5 29.2c-37.8-3.7-79.2 8.4-92 10.8-3.1.8-8.5 12.2 5 13.2 15.8.5 22.4 8.2 60.8 10.1 38.5 1.9 82.7-10.4 82.7-12.5 0-2.2-15.3 3.5-13.9 1.4 1.4-2.2 14.7-3 15.6-4.9s-16.8-14-58.2-18.1z"/>
  <path fill="#7698CF" d="M289.6 39.8s-3.2.5-3.9.6c-7.6.3-22.8-22.3-30.5-18.2-7.6 4.1 4.7 18.2 3 26.3-1.4 6.7-9.1 16.2-3 21.1 6.1 4.9 23.4-16.9 39.2-16.3-13.5-1-7.9-12.7-4.8-13.5z"/>
  <circle fill="#FFF" cx="419.5" cy="44" r="1.9"/>
  <path fill="#7698CF" d="M389.2 57.1c-.9 4.9-1.6 27.6-10.1 26.7s-16.9-13.6-4.4-21.8c12.6-8.2 14.5-4.9 14.5-4.9z"/>
</svg>
